<svg id="Capa_1" enable-background="new 0 0 512.011 512.011" height="512" viewBox="0 0 512.011 512.011" width="512" xmlns="http://www.w3.org/2000/svg"><path d="m191.643 97.376c-24.38-25.76-57.92-40.28-90.56-38.76v394.78c32.64 1.52 66.18-13 90.56-38.76 39.23-41.46 54.36-100.88 54.36-158.63s-15.13-117.17-54.36-158.63z" fill="#7a4235"/><path d="m169.873 97.376c-18.68-23.27-43.71-37.37-68.79-38.76-18.59.86-36.89 6.94-53.03 19.1-44.47 33.51-54.42 97.84-19.55 141.23 2.3 2.87 4.29 5.62 6 8.31 2.7-.81 23.54 28.75 23.54 28.75s-20.84 29.56-23.54 28.75c-1.71 2.69-3.7 5.44-6 8.31-34.87 43.39-24.92 107.72 19.55 141.23 16.14 12.16 34.44 18.24 53.03 19.1 25.08-1.39 50.11-15.49 68.79-38.76 33.3-41.46 46.13-100.88 46.13-158.63s-12.83-117.17-46.13-158.63z" fill="#95472c"/><path d="m43.043 226.006c16.57 0 30 13.43 30 30s-13.43 30-30 30c-2.97 0-5.84-.44-8.54-1.25 6.06-9.55 8.54-18.29 8.54-28.75s-2.48-19.2-8.54-28.75c2.7-.81 5.57-1.25 8.54-1.25z" fill="#ffe373"/><path d="m450.146 97.376c-24.38-25.76-57.92-40.28-90.56-38.76v394.78c32.64 1.52 66.18-13 90.56-38.76 39.23-41.46 54.36-100.88 54.36-158.63s-15.13-117.17-54.36-158.63z" fill="#7a4235"/><path d="m428.376 97.376c-18.68-23.27-43.71-37.37-68.79-38.76-18.59.86-36.89 6.94-53.03 19.1-44.47 33.51-54.42 97.84-19.55 141.23 2.3 2.87 4.29 5.62 6 8.31 2.7-.81 23.54 28.75 23.54 28.75s-20.84 29.56-23.54 28.75c-1.71 2.69-3.7 5.44-6 8.31-34.87 43.39-24.92 107.72 19.55 141.23 16.14 12.16 34.44 18.24 53.03 19.1 25.08-1.39 50.11-15.49 68.79-38.76 33.3-41.46 46.13-100.88 46.13-158.63s-12.831-117.17-46.13-158.63z" fill="#95472c"/><path d="m301.545 226.006c16.57 0 30 13.43 30 30s-13.43 30-30 30c-2.97 0-5.84-.44-8.54-1.25 6.06-9.55 8.54-18.29 8.54-28.75s-2.48-19.2-8.54-28.75c2.7-.81 5.57-1.25 8.54-1.25z" fill="#ffe373"/><path d="m197.094 92.221c-20.196-21.337-46.383-35.477-73.735-39.814-28.863-4.578-57.203 2.283-79.809 19.315-23.501 17.709-39.068 44.619-42.71 73.83-3.545 28.436 4.204 56.168 21.812 78.077 9.283 11.601 12.9 20.679 12.9 32.376s-3.617 20.775-12.891 32.364c-17.617 21.922-25.366 49.655-21.821 78.09 3.642 29.211 19.209 56.121 42.71 73.83 18.03 13.586 39.711 20.699 62.395 20.699 5.754 0 11.574-.458 17.414-1.384 27.353-4.337 53.539-18.477 73.735-39.814 19.356-20.451 34.024-46.048 43.596-76.082 8.508-26.696 12.821-56.204 12.821-87.703s-4.313-61.007-12.821-87.703c-9.572-30.033-24.24-55.63-43.596-76.081zm-150.757 141.527c10.855 1.595 19.215 10.967 19.215 22.258s-8.36 20.662-19.215 22.258c2.901-7.067 4.215-14.221 4.215-22.258 0-8.036-1.313-15.19-4.215-22.258zm139.863 175.731c-22.766 24.053-51.877 36.598-79.977 36.596-19.125-.001-37.785-5.814-53.646-17.765-20.277-15.28-33.71-38.5-36.853-63.706-3.039-24.372 3.577-48.108 18.638-66.85 1.252-1.565 2.409-3.098 3.502-4.616 1.717.24 3.449.368 5.187.368 20.678 0 37.5-16.822 37.5-37.5s-16.822-37.5-37.5-37.5c-1.739 0-3.471.128-5.188.368-1.096-1.521-2.256-3.06-3.511-4.628-15.051-18.729-21.667-42.465-18.628-66.837 3.143-25.206 16.575-48.426 36.853-63.706 39.165-29.513 95.362-21.594 133.623 18.83 33.733 35.64 52.312 90.145 52.312 153.473s-18.579 117.833-52.312 153.473z"/><path d="m499.19 168.303c-9.571-30.033-24.239-55.63-43.596-76.081-20.109-21.247-46.183-35.368-73.418-39.762-28.724-4.634-56.981 2.061-79.569 18.853-3.324 2.471-4.016 7.169-1.545 10.494 2.473 3.324 7.169 4.014 10.494 1.544 39.113-29.077 95.107-21.007 133.144 19.182 33.733 35.64 52.312 90.144 52.312 153.473s-18.579 117.833-52.312 153.473c-22.766 24.053-51.876 36.598-79.977 36.596-19.125-.001-37.785-5.814-53.646-17.765-20.277-15.28-33.71-38.5-36.853-63.706-3.039-24.372 3.577-48.108 18.638-66.85 1.252-1.565 2.409-3.098 3.502-4.616 1.717.24 3.449.368 5.188.368 20.678 0 37.5-16.822 37.5-37.5s-16.822-37.5-37.5-37.5c-1.739 0-3.472.128-5.189.368-1.096-1.521-2.256-3.06-3.511-4.628-25.453-31.673-25.825-77.403-.905-111.208 2.458-3.334 1.747-8.029-1.587-10.487-3.334-2.457-8.028-1.748-10.487 1.587-28.954 39.277-28.425 92.531 1.278 129.492 9.284 11.602 12.901 20.68 12.901 32.376s-3.617 20.774-12.892 32.364c-17.617 21.921-25.366 49.654-21.821 78.089 3.642 29.211 19.209 56.121 42.71 73.83 18.03 13.586 39.711 20.7 62.396 20.699 5.754 0 11.573-.458 17.413-1.384 27.353-4.337 53.539-18.477 73.735-39.814 19.356-20.451 34.024-46.048 43.596-76.082 8.508-26.696 12.821-56.204 12.821-87.703s-4.312-61.007-12.82-87.702zm-175.137 87.703c0 11.291-8.361 20.663-19.215 22.258 2.902-7.068 4.215-14.222 4.215-22.258s-1.313-15.189-4.216-22.258c10.855 1.595 19.216 10.967 19.216 22.258z"/></svg>