<?xml version="1.0" encoding="iso-8859-1"?>
<!-- Generator: Adobe Illustrator 19.0.0, SVG Export Plug-In . SVG Version: 6.00 Build 0)  -->
<svg version="1.1" id="Capa_1" xmlns="http://www.w3.org/2000/svg" xmlns:xlink="http://www.w3.org/1999/xlink" x="0px" y="0px"
	 viewBox="0 0 512 512" style="enable-background:new 0 0 512 512;" xml:space="preserve">
<path style="fill:#FD6244;" d="M416,379v63c0,33.14-71.63,60-160,60S96,475.14,96,442v-63c0,33.14,71.63,60,160,60
	S416,412.14,416,379z"/>
<path style="fill:#FED42D;" d="M416,156.95V379c0,33.14-71.63,60-160,60S96,412.14,96,379V156.95C134.4,181.53,195.37,193,256,193
	S377.6,181.53,416,156.95z"/>
<path style="fill:#FD6244;" d="M416,70v86.95C377.6,181.53,316.63,193,256,193s-121.6-11.47-160-36.05V70c0,33.14,71.63,60,160,60
	S416,103.14,416,70z"/>
<path style="fill:#F0E6DE;" d="M256,10c88.37,0,160,26.86,160,60s-71.63,60-160,60S96,103.14,96,70S167.63,10,256,10z"/>
<path style="fill:#FD6244;" d="M256,236c44.11,0,80,35.88,80,80s-35.89,80-80,80s-80-35.88-80-80S211.89,236,256,236z"/>
<path style="fill:#57555C;" d="M216,50c22.09,0,40,8.95,40,20s-17.91,20-40,20s-60-8.95-60-20S193.91,50,216,50z"/>
<path d="M256,286c5.52,0,10-4.48,10-10s-4.48-10-10-10s-10,4.48-10,10S250.48,286,256,286z"/>
<path d="M256,0c-43.909,0-85.336,6.467-116.65,18.209C104.947,31.11,86,49.503,86,70v372c0,20.497,18.947,38.89,53.35,51.791
	C170.664,505.533,212.091,512,256,512s85.337-6.467,116.65-18.209C407.054,480.89,426,462.497,426,442V70
	c0-20.497-18.946-38.89-53.35-51.791C341.337,6.467,299.909,0,256,0z M106,174.017C143.475,192.559,196.893,203,256,203
	c59.106,0,112.524-10.441,150-28.982V379c0,23.603-64.148,50-150,50c-85.851,0-150-26.397-150-50V174.017z M406,151.329
	C371.449,171.499,317.244,183,256,183s-115.449-11.501-150-31.671v-47.224C141.792,131.773,210.159,140,256,140
	c45.643,0,114.172-8.2,150-35.895V151.329z M256,492c-85.851,0-150-26.397-150-50v-28.895C141.792,440.773,210.159,449,256,449
	c45.643,0,114.172-8.2,150-35.895V442C406,465.603,341.852,492,256,492z M406,70c0,23.603-64.148,50-150,50
	c-85.851,0-150-26.397-150-50s64.149-50,150-50C341.852,20,406,46.397,406,70z"/>
<path d="M146,70c0,22.052,49.513,30,70,30c28.505,0,50-12.897,50-30s-21.495-30-50-30C195.473,40,146,47.851,146,70z M246,70
	c0,0.347-1.075,2.644-6.188,5.199C233.709,78.25,225.03,80,216,80c-17.801,0-39.017-5.492-47.403-10C176.983,65.492,198.2,60,216,60
	c9.03,0,17.709,1.75,23.812,4.801C244.925,67.356,246,69.653,246,70z"/>
<path d="M256,406c49.626,0,90-40.374,90-90s-40.374-90-90-90s-90,40.374-90,90S206.374,406,256,406z M256,246
	c38.598,0,70,31.402,70,70s-31.402,70-70,70s-70-31.402-70-70S217.402,246,256,246z"/>
<path d="M256,366c27.57,0,50-22.43,50-50c0-8.773-2.322-17.423-6.716-25.011c-2.768-4.779-8.886-6.41-13.665-3.644
	c-4.779,2.768-6.41,8.886-3.644,13.665c2.633,4.547,4.024,9.73,4.024,14.989c0,16.542-13.458,30-30,30c-5.522,0-10,4.478-10,10
	S250.478,366,256,366z"/>
<g>
</g>
<g>
</g>
<g>
</g>
<g>
</g>
<g>
</g>
<g>
</g>
<g>
</g>
<g>
</g>
<g>
</g>
<g>
</g>
<g>
</g>
<g>
</g>
<g>
</g>
<g>
</g>
<g>
</g>
</svg>
