<?xml version="1.0" encoding="UTF-8"?>
<svg xmlns="http://www.w3.org/2000/svg" viewBox="0 0 512 512" width="512" height="512"><g id="Filled_outline" data-name="Filled outline"><rect x="48" y="64" width="416" height="280" rx="16" ry="16" style="fill:#804a32"/><rect x="48" y="64" width="416" height="248" rx="16" ry="16" style="fill:#91563a"/><path d="M360,488H168V440a64,64,0,0,1,64-64H360Z" style="fill:#ef7800"/><path d="M317.287,432.913A16,16,0,0,0,304,408h-2.158a15.925,15.925,0,0,0-16.109-23.821,15.976,15.976,0,0,0-21.912-21.912,16,16,0,1,0-31.642,0,15.976,15.976,0,0,0-21.912,21.912A15.97,15.97,0,0,0,194.158,408H192a16,16,0,0,0-13.287,24.913A15.992,15.992,0,0,0,184,464H312a15.992,15.992,0,0,0,5.287-31.087Z" style="fill:#f1ddc1"/><path d="M464,462.99a32.188,32.188,0,0,1-16,0,31.485,31.485,0,0,1-4.51-1.53q-5.67-2.415-11.49-4.36a165.151,165.151,0,0,0-16-4.49A190.922,190.922,0,0,0,373.6,448H360V416h15.27c23.71,0,47-5.17,69.08-13.81A32.005,32.005,0,1,1,464,462.99Z" style="fill:#ef7800"/><path d="M360,488H168a64,64,0,0,1,64-64h96V376h32Z" style="fill:#f88400"/><path d="M120,368a16,16,0,0,0-2.267.179,15.991,15.991,0,0,0-22.646-21.466,15.98,15.98,0,0,0-30.174,0,15.985,15.985,0,0,0-22.646,21.466A15.992,15.992,0,1,0,40,400h80a16,16,0,0,0,0-32Z" style="fill:#f1ddc1"/><path d="M120,456H40l-1.689-3.378A135.561,135.561,0,0,1,24,392H136a135.561,135.561,0,0,1-14.311,60.622Z" style="fill:#91563a"/><path d="M422.254,272H41.734l65.025-96h315.5a82.167,82.167,0,0,1,51.33,18.006h0A38.409,38.409,0,0,1,488,224h0a38.409,38.409,0,0,1-14.416,29.994h0A82.167,82.167,0,0,1,422.254,272Z" style="fill:#ffb431"/><ellipse cx="71.291" cy="224" rx="60.258" ry="30.123" transform="translate(-138.835 118.616) rotate(-45.711)" style="fill:#f1ddc1"/><path d="M178.462,176l-12.595,25.19a13.21,13.21,0,0,0,11.815,19.118h0a13.208,13.208,0,0,0,11.815-7.3L208,176Z" style="fill:#f9a40f"/><path d="M250.462,176l-12.595,25.19a13.21,13.21,0,0,0,11.815,19.118h0a13.208,13.208,0,0,0,11.815-7.3L280,176Z" style="fill:#f9a40f"/><path d="M322.462,176l-12.595,25.19a13.21,13.21,0,0,0,11.815,19.118h0a13.208,13.208,0,0,0,11.815-7.3L352,176Z" style="fill:#f9a40f"/><path d="M394.462,176l-12.595,25.19a13.21,13.21,0,0,0,11.815,19.118h0a13.208,13.208,0,0,0,11.815-7.3L424,176Z" style="fill:#f9a40f"/><path d="M448,104H414.648A82.39,82.39,0,0,1,344,64h0a82.39,82.39,0,0,1,70.648-40H448a40,40,0,0,1,40,40h0A40,40,0,0,1,448,104Z" style="fill:#f9a40f"/><path d="M376,144H308l20-80h48a40,40,0,0,1,40,40h0A40,40,0,0,1,376,144Z" style="fill:#ffb431"/><ellipse cx="316" cy="104" rx="42.836" ry="32.557" transform="matrix(0.552, -0.834, 0.834, 0.552, 54.95, 310.216)" style="fill:#fdd560"/><path d="M264.25,29.38A120.134,120.134,0,0,1,24,29.38L37.42,23A119.954,119.954,0,0,0,49.67,41.99a119.883,119.883,0,0,0,94.45,45.94,119.8,119.8,0,0,0,88.94-39.4A121.016,121.016,0,0,0,250.83,23Z" style="fill:#ffb431"/><path d="M49.67,41.993,27.733,57.666A119.328,119.328,0,0,1,24,29.378L37.42,23A119.869,119.869,0,0,0,49.67,41.993Z" style="fill:#91563a"/><path d="M264.25,29.38a120.173,120.173,0,0,1-4.83,32.33L233.06,48.53A121.016,121.016,0,0,0,250.83,23Z" style="fill:#91563a"/><path d="M458.777,392.1a39.782,39.782,0,0,0-17.344,2.645C418.959,403.539,396.7,408,375.266,408H368V376a8,8,0,0,0-8-8H294.624A24.039,24.039,0,0,0,272,352q-.679,0-1.357.039a23.827,23.827,0,0,0-25.11-15.9V336H104a24.043,24.043,0,0,0-5.573.651,23.953,23.953,0,0,0-36.855,0A24.022,24.022,0,0,0,32,360q0,.679.039,1.357a23.95,23.95,0,0,0-15.484,27.732A7.951,7.951,0,0,0,16,392a144.286,144.286,0,0,0,15.155,64.2l1.69,3.378A8,8,0,0,0,40,464h80a8,8,0,0,0,7.155-4.422l1.69-3.379A144.279,144.279,0,0,0,144,392a7.951,7.951,0,0,0-.555-2.911,23.95,23.95,0,0,0-15.484-27.732Q128,360.681,128,360a23.885,23.885,0,0,0-1.376-8h98.749l-.016.039Q224.679,352,224,352a24.023,24.023,0,0,0-23.987,23.478A71.542,71.542,0,0,0,160,440v48a8,8,0,0,0,8,8H360a8,8,0,0,0,8-8V456h5.6c24.311,0,46.769,4.313,66.75,12.82a40.029,40.029,0,0,0,50.613-17.384l-13.979-7.783A24.056,24.056,0,0,1,464,454.621V424H448v30.629c-.463-.164-.924-.337-1.378-.531q-7.129-3.035-14.622-5.408V432H416v12.407A199.232,199.232,0,0,0,373.6,440H368V424h7.266c23.435,0,47.66-4.832,72-14.361a24.011,24.011,0,0,1,32.674,20.642,24.44,24.44,0,0,1-.183,5.157L495.6,437.7a40.577,40.577,0,0,0,.305-8.524A40.081,40.081,0,0,0,458.777,392.1ZM115.05,448H44.95a128.334,128.334,0,0,1-12.695-48h95.49A128.334,128.334,0,0,1,115.05,448ZM112,360a7.893,7.893,0,0,1-1.143,4.086A8,8,0,0,0,118.9,376.1,7.667,7.667,0,0,1,120,376a8.009,8.009,0,0,1,8,8H32a8.009,8.009,0,0,1,8-8,7.667,7.667,0,0,1,1.1.1,8,8,0,0,0,8.038-12.009A7.893,7.893,0,0,1,48,360a8.009,8.009,0,0,1,8-8,7.916,7.916,0,0,1,4.442,1.346,8,8,0,0,0,12.025-4.011,7.469,7.469,0,0,1,.615-1.324,7.972,7.972,0,0,1,13.842.01,7.446,7.446,0,0,1,.609,1.314,8,8,0,0,0,12.025,4.011A7.916,7.916,0,0,1,104,352,8.009,8.009,0,0,1,112,360Zm208,46.137a24.009,24.009,0,0,0-8.039-4.78Q312,400.681,312,400a23.887,23.887,0,0,0-6.148-16H320ZM224,368a7.883,7.883,0,0,1,4.084,1.142,8,8,0,0,0,12.012-8.026A7.8,7.8,0,0,1,240,360a8,8,0,0,1,16,0,7.8,7.8,0,0,1-.1,1.116,8,8,0,0,0,12.012,8.026A7.883,7.883,0,0,1,272,368a8.009,8.009,0,0,1,8,8,7.893,7.893,0,0,1-1.143,4.086A8,8,0,0,0,286.9,392.1,7.667,7.667,0,0,1,288,392a8.009,8.009,0,0,1,8,8,7.836,7.836,0,0,1-1.079,3.983A8,8,0,0,0,301.84,416H232a71.647,71.647,0,0,0-45.34,16.122,8,8,0,0,0-1.313-3.68A7.919,7.919,0,0,1,184,424a8.009,8.009,0,0,1,8-8h2.16a8,8,0,0,0,6.919-12.017A7.836,7.836,0,0,1,200,400a8.009,8.009,0,0,1,8-8,7.667,7.667,0,0,1,1.1.1,8,8,0,0,0,8.033-12.018,7.814,7.814,0,0,1-.83-1.927A7.634,7.634,0,0,1,216,376,8.009,8.009,0,0,1,224,368ZM352,480H176.569A56.089,56.089,0,0,1,232,432h96a8,8,0,0,0,8-8V384h16Z"/><path d="M478.578,187.763c-2.121-1.7-4.327-3.287-6.578-4.778V120H456v54.57a90.4,90.4,0,0,0-31.389-6.531c-.2-.015-323.256-.039-324.917-.039C86.682,168,70.768,174.9,56,186.56V136H40v65.669c-23.758,26.554-31.043,56.307-16.7,70.869,4.22,4.283,9.951,6.793,16.7,7.345V328H56v-9.379c.07.025.136.056.207.08A23.79,23.79,0,0,0,64,320H448a23.889,23.889,0,0,0,8-1.376V328a8.009,8.009,0,0,1-8,8H298.006v16H448a24.028,24.028,0,0,0,24-24V288H456v8a8.009,8.009,0,0,1-8,8H64a7.905,7.905,0,0,1-2.6-.431A7.992,7.992,0,0,1,56,296V280H408V264H83.217a123.455,123.455,0,0,0,14.917-12.924c22.942-23.287,33.011-50,26.563-67.076h40.821l-6.807,13.612a21.21,21.21,0,1,0,37.941,18.971L212.944,184h24.574l-6.807,13.612a21.21,21.21,0,1,0,37.941,18.971L284.944,184h24.574l-6.807,13.612a21.21,21.21,0,1,0,37.941,18.971L356.944,184h24.574l-6.807,13.612a21.21,21.21,0,1,0,37.941,18.971L428.8,184.3a74.266,74.266,0,0,1,31.146,10c6.918,4.086,13.5,9.154,17.06,16.536a30.6,30.6,0,0,1,0,26.333c-5.395,11.211-18.926,18.7-30.2,22.657A74.107,74.107,0,0,1,422.25,264v16a90.032,90.032,0,0,0,45.807-12.5c9.454-5.575,18.533-13.358,23.361-23.385A46.625,46.625,0,0,0,496,224C496,210.71,489.137,196.217,478.578,187.763ZM86.735,239.847C72.281,254.519,55.069,264,42.888,264c-3.673,0-6.428-.9-8.187-2.691-6.519-6.618-1.63-30.041,21.145-53.156C70.3,193.481,87.513,184,99.694,184c3.672,0,6.427.905,8.186,2.691C114.4,193.309,109.51,216.732,86.735,239.847Zm95.607-30.419a5.21,5.21,0,0,1-9.321-4.66L183.406,184h11.65Zm72,0a5.21,5.21,0,0,1-9.321-4.66L255.406,184h11.65Zm72,0a5.21,5.21,0,0,1-9.321-4.66L327.406,184h11.65Zm72,0a5.21,5.21,0,0,1-9.321-4.66L399.406,184h11.65Z"/><rect x="80" y="200" width="16" height="16"/><rect x="48" y="224" width="16" height="16"/><rect x="408" y="40" width="16" height="16"/><rect x="448" y="64" width="16" height="16"/><path d="M274.32,128.358a34.3,34.3,0,0,0,18.316,20.617,35.145,35.145,0,0,0,14.468,3.043L376,152a48.011,48.011,0,0,0,47.326-40H448a48.012,48.012,0,0,0,48-48,48.054,48.054,0,0,0-48-48H414.65a90.333,90.333,0,0,0-75.03,40H280V72h9.973a63.937,63.937,0,0,0-10.9,14.833C271.733,100.6,270,115.731,274.32,128.358Zm124.3-1.735A31.846,31.846,0,0,1,376,136H342.027a63.937,63.937,0,0,0,10.9-14.833c7.338-13.763,9.069-28.9,4.751-41.525A37.473,37.473,0,0,0,354.064,72H376a31.994,31.994,0,0,1,22.623,54.623ZM378,41.653A74.591,74.591,0,0,1,414.65,32H448a32,32,0,0,1,12.786,61.334A31.627,31.627,0,0,1,448,96H423.321A48.069,48.069,0,0,0,376,56H359.938A74.465,74.465,0,0,1,378,41.653ZM293.19,94.361c7.228-13.556,20.387-22.353,31.762-22.353a19.067,19.067,0,0,1,7.861,1.615,18.4,18.4,0,0,1,9.728,11.2c2.847,8.325,1.452,19.1-3.731,28.819-8.984,16.849-27.131,26.343-39.623,20.738a18.4,18.4,0,0,1-9.728-11.2C286.612,114.855,288.007,104.083,293.19,94.361Z"/><rect x="368" y="96" width="16" height="16"/><path d="M144.12,156A126.981,126.981,0,0,0,221.6,129.924,129.11,129.11,0,0,0,267.1,63.96a128.279,128.279,0,0,0,5.152-34.48,8,8,0,0,0-4.564-7.325l-13.42-6.38a8,8,0,0,0-10.535,3.537,113.016,113.016,0,0,1-16.591,23.839A111.945,111.945,0,0,1,213.3,56H74.874A113.473,113.473,0,0,1,55.952,37.037,112.207,112.207,0,0,1,44.52,19.312a8,8,0,0,0-10.535-3.537l-13.42,6.38A8,8,0,0,0,16,29.479,128.058,128.058,0,0,0,144.12,156ZM254.159,33.441l1.914.91a112.346,112.346,0,0,1-2.02,15.731l-8.378-4.189A129.18,129.18,0,0,0,254.159,33.441ZM185.433,72a111.963,111.963,0,0,1-41.313,7.93A112.085,112.085,0,0,1,102.581,72ZM144.12,95.93a128.424,128.424,0,0,0,90.644-37.6l14.893,7.447a113.191,113.191,0,0,1-37.737,51.415A111.106,111.106,0,0,1,144.12,140,112,112,0,0,1,36.959,60.906l11.33-8.095A127.313,127.313,0,0,0,144.12,95.93ZM34.09,33.441q2.063,3.45,4.335,6.755l-5.274,3.767q-.69-4.776-.975-9.612Z"/><path d="M222.385,93.673,211.1,82.328a94.979,94.979,0,0,1-133.5.451L66.4,94.2a110.982,110.982,0,0,0,155.989-.526Z"/></g></svg>
