<svg id="Layer_1" enable-background="new 0 0 510 510" height="512" viewBox="0 0 510 510" width="512" xmlns="http://www.w3.org/2000/svg"><g id="XMLID_2144_"><g id="XMLID_2215_"><g><g id="XMLID_491_"><path d="m235 202.5h-30c0-16.953 8.298-26.288 13.789-32.465 4.393-4.942 6.211-6.988 6.211-12.535s-1.818-7.593-6.211-12.535c-5.491-6.177-13.789-15.512-13.789-32.465h30c0 5.547 1.818 7.593 6.211 12.535 5.491 6.177 13.789 15.512 13.789 32.465s-8.298 26.288-13.789 32.465c-4.393 4.942-6.211 6.988-6.211 12.535z" fill="#e2d9fb"/></g></g></g><g id="XMLID_2211_"><g><path id="XMLID_490_" d="m80 202.5h-30c0-5.547-1.818-7.593-6.211-12.535-5.491-6.177-13.789-15.512-13.789-32.465s8.298-26.288 13.789-32.465c4.393-4.942 6.211-6.988 6.211-12.535h30c0 16.953-8.298 26.288-13.789 32.465-4.393 4.942-6.211 6.988-6.211 12.535s1.818 7.593 6.211 12.535c5.491 6.177 13.789 15.512 13.789 32.465z" fill="#f2f2fc"/></g></g><path id="XMLID_2208_" d="m316.038 172.5 13.999 225 39.296 9 35.667-9 10-117.5-10-107.5z" fill="#f2f2fc"/><path id="XMLID_2205_" d="m495.962 172.5h-90.962v225l40 10 36.962-10z" fill="#e2d9fb"/><path id="XMLID_2204_" d="m374.23 262.5h-22.535l8.4 135 22.403 10 22.501-10 10-71.009-10-71.009c-9.593 4.611-20.109 7.018-30.769 7.018z" fill="#7dd5f4"/><path id="XMLID_2201_" d="m461.238 247.5h-23.468c-11.265 0-22.084 2.667-31.77 7.5-.331.166-.666.321-1 .482v142.018l23 10 23.904-10z" fill="#69f"/><path id="XMLID_2198_" d="m143 307.507c-.102-.001-107.258-1.615-132.477-1.996 12.568 33.515 35.516 61.411 64.477 80.298v11.691l27 10.75 41-7.25 10-50.833z" fill="#ba6100"/><path id="XMLID_2195_" d="m143 307.507v93.493l37.25 7.25 29.75-10.75v-11.691c28.59-18.645 51.777-46.395 64.499-80.356z" fill="#994c00"/><path id="XMLID_2194_" d="m140 82.5c0 5.547-1.818 7.593-6.211 12.535-5.491 6.177-13.789 15.512-13.789 32.465s8.298 26.288 13.789 32.465c4.393 4.942 6.211 6.988 6.211 12.535h3l5.75-42.5-5.75-47.5z" fill="#f2f2fc"/><path id="XMLID_2191_" d="m170 172.5c0-16.953-8.298-26.288-13.789-32.465-4.393-4.942-6.211-6.988-6.211-12.535s1.818-7.593 6.211-12.535c5.491-6.177 13.789-15.512 13.789-32.465-6.53 0-20.599 0-27 0v90z" fill="#e2d9fb"/><path id="XMLID_2190_" d="m0 397.5v30h255l15-15-15-15z" fill="#525263"/><path id="XMLID_2184_" d="m78.75 327.5c32.046 0 31.882-20.224 64.25-19.993l10-36.007-10-39h-143v15c0 19.907 3.603 39.561 10.523 58.011l17.577 3.359c19.58 4.51 23.87 18.63 50.65 18.63z" fill="#994c00"/><path id="XMLID_2149_" d="m143 232.5v75.007c31.361.227 31.543 19.993 63.25 19.993 26.78 0 31.06-14.12 50.65-18.63l17.599-3.418c6.904-18.431 10.501-38.066 10.501-57.952v-15z" fill="#703700"/><path id="XMLID_2187_" d="m255 397.5h255v30h-255z" fill="#454554"/></g></svg>