<svg id="Layer_1" enable-background="new 0 0 496.34 496.34" height="512" viewBox="0 0 496.34 496.34" width="512" xmlns="http://www.w3.org/2000/svg"><path d="m310.433 244.313c23.593-8.293 34.954-34.885 24.636-57.665-28.347-62.59-100.071-93.028-164.85-69.761-22.862 8.212-34.024 34.338-24.153 56.534 27.921 62.785 99.431 93.716 164.367 70.892z" fill="#9f7766"/><path d="m158.524 31.309c-19.561 15.581-21.559 44.429-4.332 62.557 47.33 49.809 125.072 55.004 178.617 11.754 18.897-15.264 20.86-43.608 4.247-61.331-46.992-50.134-124.694-55.864-178.532-12.98z" fill="#dfb7a4"/><path d="m337.055 44.289c-40.5-43.208-103.115-52.994-153.536-28.684 1.924 4.331 4.602 8.427 8.076 12.083 39.791 41.875 101.849 52.716 153.043 27.965-1.837-4.072-4.355-7.92-7.583-11.364z" fill="#e0c8bf"/><path d="m488.071 180.173c-6.343-24.19-31.921-37.68-55.466-29.253-64.691 23.154-100.872 92.159-82.96 158.618 6.322 23.455 31.452 36.709 54.379 28.679 64.851-22.712 101.505-91.464 84.047-158.044z" fill="#9f7766"/><path d="m252.182 298.187c-20.455-14.386-48.7-8.187-61.249 13.445-34.479 59.433-17.591 135.495 38.979 174.708 19.965 13.839 47.715 7.747 60.048-13.181 34.886-59.2 18.522-135.375-37.778-174.972z" fill="#9f7766"/><path d="m281.357 147.046c-5.324 24.434 11.347 48.062 36.152 51.237 68.154 8.723 131.708-36.351 145.904-103.702 5.01-23.77-11.37-46.984-35.444-50.232-68.096-9.189-131.957 35.445-146.612 102.697z" fill="#c69a85"/><path d="m463.414 94.581c5.01-23.77-11.37-46.984-35.444-50.232-34.566-4.664-69.908 4.361-98.51 26.501-3.189 8.395-5.754 17.001-7.66 25.746-7.271 33.367 15.495 65.632 49.368 69.967 16.846 2.156 34.013 1.937 50.966-.727 21.611-19.234 35.618-44.393 41.28-71.255z" fill="#dfb7a4"/><path d="m427.97 44.349c-18.155-2.45-36.841-1.141-54.804 4.131 8.035 38.302 38.863 69.583 80.004 76.169 4.622-9.61 8.06-19.709 10.243-30.067 5.011-23.771-11.369-46.985-35.443-50.233z" fill="#e0c8bf"/><path d="m.993 179.755c-5.324 24.434 11.347 48.062 36.152 51.237 68.154 8.723 131.708-36.351 145.904-103.702 5.01-23.77-11.37-46.984-35.444-50.232-68.096-9.189-131.957 35.445-146.612 102.697z" fill="#c69a85"/><path d="m183.049 127.29c5.01-23.77-11.37-46.984-35.444-50.232-34.566-4.664-69.908 4.361-98.51 26.501-3.189 8.395-5.754 17.001-7.66 25.746-7.271 33.367 15.495 65.632 49.368 69.967 16.846 2.156 34.013 1.937 50.966-.727 21.612-19.234 35.619-44.393 41.28-71.255z" fill="#dfb7a4"/><path d="m147.606 77.057c-18.155-2.45-36.841-1.141-54.804 4.131 8.035 38.302 38.863 69.583 80.004 76.169 4.622-9.61 8.06-19.709 10.243-30.067 5.01-23.77-11.369-46.984-35.443-50.233z" fill="#e0c8bf"/><path d="m306.679 392.516c-8.433 23.543 5.05 49.124 29.238 55.474 66.459 17.445 135.298-19.051 158.066-84.007 8.035-22.924-5.212-48.058-28.665-54.386-66.341-17.899-135.428 18.12-158.639 82.919z" fill="#c69a85"/><path d="m493.984 363.982c8.035-22.925-5.212-48.058-28.665-54.386-33.675-9.085-69.886-4.696-101.106 13.567-4.246 7.914-7.9 16.117-10.918 24.543-11.516 32.15 6.896 67.082 39.927 75.753 16.427 4.312 33.479 6.31 50.633 5.856 23.911-16.285 41.048-39.426 50.129-65.333z" fill="#dfb7a4"/><path d="m465.318 309.596c-17.687-4.772-36.386-5.885-54.878-2.976 3.025 39.019 29.559 74.016 69.506 85.856 5.824-8.933 10.536-18.504 14.037-28.494 8.036-22.924-5.211-48.058-28.665-54.386z" fill="#e0c8bf"/><path d="m186.794 318.86c-8.433 23.543 5.05 49.124 29.238 55.474 66.459 17.445 135.298-19.051 158.066-84.007 8.035-22.924-5.212-48.058-28.665-54.386-66.342-17.899-135.429 18.12-158.639 82.919z" fill="#c69a85"/><path d="m374.098 290.326c8.035-22.925-5.212-48.058-28.665-54.386-33.675-9.085-69.886-4.696-101.106 13.567-4.246 7.914-7.9 16.117-10.918 24.543-11.516 32.15 6.896 67.082 39.927 75.753 16.427 4.312 33.479 6.31 50.633 5.856 23.912-16.285 41.049-39.426 50.129-65.333z" fill="#dfb7a4"/><path d="m345.433 235.94c-17.687-4.772-36.386-5.885-54.878-2.976 3.025 39.019 29.559 74.016 69.506 85.856 5.824-8.933 10.536-18.504 14.037-28.494 8.036-22.924-5.211-48.058-28.665-54.386z" fill="#e0c8bf"/><path d="m71.486 299.424c-5.715 24.346 10.576 48.238 35.327 51.809 68.006 9.813 132.273-34.237 147.546-101.352 5.39-23.686-10.616-47.16-34.635-50.793-67.94-10.277-132.508 33.328-148.238 100.336z" fill="#c69a85"/><path d="m254.36 249.881c5.39-23.687-10.616-47.16-34.635-50.793-34.487-5.217-69.969 3.241-98.922 24.92-3.323 8.343-6.025 16.907-8.071 25.621-7.804 33.246 14.442 65.871 48.242 70.749 16.809 2.426 33.978 2.482 50.971.09 21.915-18.887 36.323-43.819 42.415-70.587z" fill="#dfb7a4"/><path d="m219.725 199.088c-18.113-2.74-36.818-1.731-54.863 3.253 7.42 38.426 37.744 70.197 78.774 77.44 4.776-9.534 8.374-19.578 10.723-29.899 5.391-23.687-10.615-47.16-34.634-50.794z" fill="#e0c8bf"/></svg>