<svg height="512" viewBox="0 0 512 512" width="512" xmlns="http://www.w3.org/2000/svg"><g id="Filled_outline" data-name="Filled outline"><circle cx="256" cy="256" fill="#5d9046" r="232"/><circle cx="256" cy="256" fill="#5f9448" r="176"/><path d="m56 256c0-105.071 81.025-191.211 184-199.363v-32.078c-120.665 8.222-216 108.69-216 231.441a231.264 231.264 0 0 0 67.828 163.922l25.672-19.647a199.415 199.415 0 0 1 -61.5-144.275z" fill="#7eb357"/><path d="m272 24.559v32.078c102.975 8.152 184 94.292 184 199.363 0 110.457-89.543 200-200 200a199.174 199.174 0 0 1 -83.968-18.458l11.968-21.542-58 11 18 61 12.446-22.4a231.042 231.042 0 0 0 99.554 22.4c128.13 0 232-103.87 232-232 0-122.751-95.335-223.219-216-231.441z" fill="#cfd14b"/><path d="m272 24v232a16 16 0 1 1 -32 0v-96h-16v-88a48 48 0 0 1 48-48z" fill="#d5d5d3"/><path d="m264.13 269.25-2.63 1.78-27.32 18.49-56.18 38.02-4.8 24.92a48.034 48.034 0 0 1 -20.23 30.67l-43.16 29.21-53.81-79.5 43.16-29.22a48.022 48.022 0 0 1 35.99-7.38l24.91 4.8 56.52-38.25 23.42-15.85 6.19-4.19a16 16 0 1 1 17.94 26.5z" fill="#d5d5d3"/><path d="m272 219.34v36.66a15.994 15.994 0 0 1 -10.5 15.03l-27.32 18.49a39.99 39.99 0 0 1 -17.6-26.73l23.42-15.85v-27.6a39.993 39.993 0 0 1 32 0z" fill="#cececc"/><circle cx="256" cy="256" fill="#dfdfdd" r="24"/><path d="m201.879 55.109c-90.602 24.351-153.879 106.96-153.879 200.891a209.362 209.362 0 0 0 4.883 45.011l15.625-3.447a192.294 192.294 0 0 1 137.524-227z"/><path d="m495.426 239.4a240.021 240.021 0 0 0 -194.752-219.274l-2.966 15.723a224.039 224.039 0 1 1 -137.682 422.585 8 8 0 0 0 -10.568 3.272l-3.18 5.724-10.1-34.222 32.539-6.172-3.545 6.382a8 8 0 0 0 3.59 11.452 206.3 206.3 0 0 0 87.243 19.13c114.692 0 208-93.309 208-208 0-99.138-70.49-184.967-167.61-204.081l-3.09 15.7c89.639 17.642 154.7 96.868 154.7 188.382 0 105.869-86.13 192-192 192a190.488 190.488 0 0 1 -72.714-14.24l7.709-13.881a8 8 0 0 0 -8.484-11.745l-58 11a8 8 0 0 0 -6.182 10.124l18 61a8 8 0 0 0 14.666 1.621l8.855-15.94a240.033 240.033 0 0 0 335.571-236.54z"/><path d="m32.546 271.481a224.026 224.026 0 0 1 177.291-234.701l-3.276-15.661a239.941 239.941 0 0 0 -104.8 418.746l10.286-12.256a222.19 222.19 0 0 1 -79.501-156.128z"/><path d="m248 400h16v32h-16z"/><path d="m328 378.564h16v32h-16z" transform="matrix(.866 -.5 .5 .866 -152.266 220.861)"/><path d="m168 101.436h16v32h-16z" transform="matrix(.866 -.5 .5 .866 -35.138 103.733)"/><path d="m386.564 320h16v32h-16z" transform="matrix(.5 -.866 .866 .5 -93.702 509.703)"/><path d="m109.436 160h16v32h-16z" transform="matrix(.5 -.866 .866 .5 -93.702 189.703)"/><path d="m400 248h32v16h-32z"/><path d="m80 248h32v16h-32z"/><path d="m378.564 168h32v16h-32z" transform="matrix(.866 -.5 .5 .866 -35.139 220.861)"/><path d="m320 109.436h32v16h-32z" transform="matrix(.5 -.866 .866 .5 66.298 349.703)"/><path d="m180.8 355.225c.066-.29.125-.581.182-.871l.054-.273c.008-.036.015-.072.022-.108l4.173-21.665 66-44.666a31.978 31.978 0 0 0 28.769-52.774v-210.868a8 8 0 0 0 -8-8c-1.817 0-3.634.086-5.4.256-.1.007-.2.015-.3.025a55.98 55.98 0 0 0 -50.3 55.719v88a8 8 0 0 0 8 8h8v66.868a31.954 31.954 0 0 0 -6.785 12.421l-66.9 45.269-21.573-4.158c-.245-.051-.5-.1-.78-.143a55.7 55.7 0 0 0 -41.288 8.743l-43.157 29.214 8.966 13.252 43.161-29.22a39.771 39.771 0 0 1 29.532-6.234c.041.008.136.024.176.03l.058.007.226.047 24.91 4.8a8.008 8.008 0 0 0 6-1.23l61.16-41.388a32.089 32.089 0 0 0 8.773 13.381l-60.96 41.256a8 8 0 0 0 -3.371 5.112l-4.8 24.91-.067.334c-.026.128-.049.256-.079.385-.011.047-.021.094-.032.14a39.865 39.865 0 0 1 -16.683 24.704l-43.162 29.211 8.97 13.249 43.164-29.213a55.8 55.8 0 0 0 23.341-34.522zm75.2-83.225a16 16 0 1 1 16-16 16.019 16.019 0 0 1 -16 16zm-24-200a39.988 39.988 0 0 1 32-39.211v192.224a32.1 32.1 0 0 0 -16 0v-65.013a8 8 0 0 0 -8-8h-8z"/><path d="m86.373 359.902h64v15.999h-64z" transform="matrix(.828 -.561 .561 .828 -185.868 129.572)"/><path d="m68.437 333.401h64v15.999h-64z" transform="matrix(.828 -.561 .561 .828 -174.097 114.965)"/></g></svg>