<svg id="Capa_1" enable-background="new 0 0 511.931 511.931" height="512" viewBox="0 0 511.931 511.931" width="512" xmlns="http://www.w3.org/2000/svg"><g><path d="m192.333 511.931 120.908-120.908-104.039-116.578-113.035 141.32z" fill="#198080"/><path d="m106.052 213.547-106.052 106.051 96.167 96.167 127.177-127.178z" fill="#24b3b3"/><path d="m415.765 96.167-191.827 163.542 131.73 88.888 156.263-156.264z" fill="#5b362a"/><path d="m319.598 0-171.119 171.12 89.601 102.731 177.685-177.684z" fill="#895140"/><path d="m408.345 167h50.667v50.667h-50.667z" fill="#38211a" transform="matrix(.707 -.707 .707 .707 -8.979 362.99)"/><path d="m237.225 109.96h50.667v50.667h-50.667z" fill="#5b362a" transform="matrix(.707 -.707 .707 .707 -18.766 225.283)"/><path d="m351.305 224.04h50.667v50.667h-50.667z" fill="#38211a" transform="matrix(.707 -.707 .707 .707 -66.019 339.363)"/><path d="m294.265 52.92h50.667v50.667h-50.667z" fill="#5b362a" transform="matrix(.707 -.707 .707 .707 38.275 248.91)"/><path d="m355.425 306.413-35.827-35.826-37.036 37.036 51.806 19.847z" fill="#38211a"/><path d="m241.345 192.334-35.827-35.827-35.74 35.74 23.602 48.051z" fill="#5b362a"/><path d="m298.385 249.374-17.914-17.914-49.462 35.32 41.973 7.996z" fill="#38211a"/><path d="m262.558 213.547-31.168 31.168 13.761 22.065 35.32-35.32z" fill="#5b362a"/><path d="m360.262 131.583h50.667v25.333h-50.667z" fill="#38211a" transform="matrix(.707 -.707 .707 .707 10.938 314.907)"/><path d="m342.348 113.67h50.667v25.333h-50.667z" fill="#5b362a" transform="matrix(.707 -.707 .707 .707 18.358 296.993)"/><path d="m303.221 188.623h50.667v25.333h-50.667z" fill="#38211a" transform="matrix(.707 -.707 .707 .707 -46.102 291.28)"/><path d="m285.308 170.71h50.667v25.333h-50.667z" fill="#5b362a" transform="matrix(.707 -.707 .707 .707 -38.682 273.367)"/><path d="m237.782 260.007-28.58 42.722c2.066 1.476 4.121 2.939 6.169 4.397 24.934 17.748 48.486 34.512 87.264 73.291l10.606 10.606 21.213-21.213z" fill="#cfcfe6"/><path d="m127.265 192.333-21.214 21.214 10.607 10.607c40.734 40.734 67.53 60.702 92.544 78.575l35.651-35.651z" fill="#ece6f2"/><path d="m323.848 359.204 10.606 10.606 21.213-21.213-10.606-10.606c-41.202-41.202-67.622-60.323-92.839-78.281l-18.467 4.325-3.045 17.187c.686.489 1.372.977 2.057 1.465 25.987 18.496 50.531 35.967 91.081 76.517z" fill="#ece6f2"/><path d="m250.166 258.245c-25.985-18.497-50.531-35.969-91.08-76.518l-10.607-10.607-21.213 21.213 10.607 10.607c41.201 41.201 67.621 60.322 92.838 78.281l21.511-21.511c-.686-.49-1.372-.978-2.056-1.465z" fill="#fff5f5"/></g></svg>