<svg id="Filled_expand" height="512" viewBox="0 0 512 512" width="512" xmlns="http://www.w3.org/2000/svg" data-name="Filled expand"><g><circle cx="256" cy="256" fill="#d76b4c" r="192"/><circle cx="256" cy="256" fill="#f7e1db" r="144"/><circle cx="288" cy="216" fill="#fef4dc" r="72"/><circle cx="288" cy="216" fill="#fac850" r="24"/><g><path d="m471.956 438.534-7.956-262.534h-32l-7.956 262.534q-.044.728-.044 1.466a24 24 0 0 0 48 0q0-.738-.044-1.466z" fill="#ebebeb"/><path d="m408 172v-44h80v44a20 20 0 0 1 -20 20h-40a20 20 0 0 1 -20-20z" fill="#f5f5f5"/><path d="m480 40v80h-24v-80h-16v80h-24v-80h-16v132a28.045 28.045 0 0 0 23.282 27.6l-7.23 238.578c-.034.6-.052 1.21-.052 1.82a32 32 0 0 0 64 0c0-.61-.018-1.218-.052-1.82l-1.648-54.42-15.992.484 1.652 54.534c0 .08.006.16.011.24.019.325.03.654.03.984a16 16 0 0 1 -32 0c0-.33.011-.659.03-.984.005-.08.009-.16.011-.24l7.235-238.776h17.446l5.1 168.242 15.992-.484-5.1-168.156a28.045 28.045 0 0 0 23.285-27.602v-132zm0 132a12.013 12.013 0 0 1 -12 12h-40a12.013 12.013 0 0 1 -12-12v-36h64z"/></g><g><path d="m87.956 438.534-7.956-262.534h-32l-7.956 262.534q-.044.728-.044 1.466a24 24 0 0 0 48 0q0-.738-.044-1.466z" fill="#f5f5f5"/><path d="m64 472a32.036 32.036 0 0 1 -32-32c0-.61.018-1.218.052-1.82l5.285-174.422 15.992.484-5.288 174.534c0 .08-.006.16-.011.24-.019.325-.03.654-.03.984a16 16 0 0 0 32 0c0-.33-.011-.659-.03-.984 0-.08-.009-.16-.011-.24l-7.713-254.534 15.992-.484 7.71 254.422c.034.6.052 1.21.052 1.82a32.036 32.036 0 0 1 -32 32z"/><ellipse cx="65.143" cy="120" fill="#f5f5f5" rx="41.143" ry="72"/><path d="m65.143 40c-27.557 0-49.143 35.14-49.143 80 0 29.533 9.356 54.854 23.612 68.708l-1.79 59.05 15.992.484 1.509-49.774a32.314 32.314 0 0 0 9.82 1.532c27.557 0 49.143-35.14 49.143-80s-21.586-80-49.143-80zm0 144c-16.006 0-33.143-25.717-33.143-64s17.137-64 33.143-64 33.143 25.717 33.143 64-17.138 64-33.143 64z"/></g><path d="m266 264c0 6.9-5 12.935-7.018 19.165-2.1 6.457-1.672 14.258-5.584 19.632-3.95 5.428-11.527 7.417-16.955 11.367-5.374 3.912-9.586 10.526-16.043 12.622-6.23 2.023-13.5-.786-20.4-.786s-14.171 2.809-20.4.786c-6.456-2.1-10.668-8.711-16.042-12.622-5.428-3.95-13-5.939-16.956-11.367-3.911-5.375-3.486-13.176-5.583-19.632-2.019-6.23-7.019-12.265-7.019-19.165s5-12.935 7.018-19.165c2.1-6.457 1.672-14.258 5.584-19.632 3.95-5.428 11.527-7.417 16.955-11.367 5.374-3.912 9.586-10.526 16.043-12.622 6.23-2.023 13.5.786 20.4.786s14.171-2.809 20.4-.786c6.456 2.1 10.668 8.711 16.042 12.622 5.428 3.95 13 5.939 16.956 11.367 3.911 5.375 3.486 13.176 5.583 19.632 2.024 6.23 7.019 12.265 7.019 19.165z" fill="#d76b4c"/><path d="m337.108 358.9a108.935 108.935 0 0 0 -98.216 0c-8.313 4.142-18.884 3.165-24.3-3.846-5.408-6.961-1.407-19.029 9.864-24.716a140.949 140.949 0 0 1 127.082 0c11.27 5.689 15.272 17.755 9.864 24.716-5.411 7.012-15.981 7.99-24.294 3.846z" fill="#fac850"/><path d="m356.9 323.7a108.937 108.937 0 0 0 -98.217 0c-8.312 4.142-18.884 3.165-24.3-3.846-5.409-6.961-1.407-19.029 9.864-24.716a140.949 140.949 0 0 1 127.082 0c11.27 5.689 15.272 17.755 9.863 24.716-5.411 7.007-15.982 7.985-24.292 3.846z" fill="#fa5d3f"/><circle cx="188" cy="196" fill="#fa5d3f" r="28"/><circle cx="228" cy="172" fill="#55e1b2" r="28"/><g><path d="m256 72a183.676 183.676 0 0 1 122.665 46.85l10.67-11.922a200.007 200.007 0 0 0 -266.67 0l10.67 11.922a183.672 183.672 0 0 1 122.665-46.85z"/><path d="m256 440a184.154 184.154 0 0 1 -138-62.3l-12 10.588a200.006 200.006 0 0 0 300 0l-12-10.588a184.157 184.157 0 0 1 -138 62.3z"/><path d="m256 408a151.471 151.471 0 0 0 104.912-42.11 23.254 23.254 0 0 0 6.809-5.925 19.185 19.185 0 0 0 2.055-3.277 151.381 151.381 0 0 0 38.224-100.688 153.43 153.43 0 0 0 -2.1-25.324l-15.779 2.648a137.454 137.454 0 0 1 1.879 22.676 135.523 135.523 0 0 1 -6.241 40.767 32.374 32.374 0 0 0 -10.818-8.767 147.851 147.851 0 0 0 -33.769-12.184 80.027 80.027 0 0 0 -89.638-131.034 35.981 35.981 0 0 0 -57.643 15.7 36.046 36.046 0 0 0 -41.891 35.518 35.8 35.8 0 0 0 2.753 13.805c-.469.248-.949.5-1.435.75-4.487 2.334-9.574 4.979-13.185 9.941-3.584 4.924-4.535 10.568-5.375 15.548a46.66 46.66 0 0 1 -1.348 6.319 43.607 43.607 0 0 1 -2.518 5.6c-2.292 4.559-4.892 9.728-4.892 16.037s2.6 11.477 4.892 16.037a43.505 43.505 0 0 1 2.517 5.6 46.677 46.677 0 0 1 1.348 6.318c.84 4.981 1.792 10.626 5.376 15.551 3.611 4.961 8.7 7.606 13.185 9.94a45.364 45.364 0 0 1 5.531 3.188 44.763 44.763 0 0 1 4.651 4.215c3.617 3.576 7.717 7.628 13.629 9.548 5.705 1.853 11.326 1.021 16.286.288a47.429 47.429 0 0 1 6.585-.685 47.429 47.429 0 0 1 6.585.683c.466.068.937.138 1.414.206a26.232 26.232 0 0 0 -3.218 7.856 20.263 20.263 0 0 0 3.482 17.2c7.481 9.69 21.862 12.265 34.239 6.1a101.206 101.206 0 0 1 91.038.02q.682.34 1.372.644a135.257 135.257 0 0 1 -78.912 25.291c-74.99 0-136-61.009-136-136s61.01-136 136-136a134.748 134.748 0 0 1 82.449 27.833 136.991 136.991 0 0 1 48.237 70.385l15.373-4.436a153.109 153.109 0 0 0 -53.9-78.666 150.621 150.621 0 0 0 -92.159-31.116c-83.813 0-152 68.187-152 152s68.187 152 152 152zm119.4-96.944a4.825 4.825 0 0 1 -.537 3.905c-2.732 3.539-9.048 4.233-14.377 1.585a117.312 117.312 0 0 0 -80.789-9.11l-.149.008v.029a115.839 115.839 0 0 0 -24.435 9.064c-5.339 2.66-11.661 1.968-14.412-1.595a4.823 4.823 0 0 1 -.521-3.888c.6-2.676 2.934-6.386 7.678-8.78a133.286 133.286 0 0 1 119.867 0c4.74 2.395 7.075 6.106 7.675 8.782zm-23.4-95.056a63.819 63.819 0 0 1 -33.745 56.413 149.807 149.807 0 0 0 -47.509 4.285 29.624 29.624 0 0 0 3.254-12.698c0-6.309-2.6-11.477-4.892-16.037a43.505 43.505 0 0 1 -2.517-5.6 28.856 28.856 0 0 1 -.828-3.375 31.985 31.985 0 1 0 -9.763-22.988v.369a48.709 48.709 0 0 0 -9.32-5.813 45.458 45.458 0 0 1 -5.532-3.188c-.514-.375-1.038-.806-1.572-1.278a36 36 0 0 0 21.546-48.19 63.282 63.282 0 0 1 26.878-5.9 64.072 64.072 0 0 1 64 64zm-80 0a16 16 0 1 1 16 16 16.019 16.019 0 0 1 -16-16zm-44-64a20 20 0 1 1 -20 20 20.023 20.023 0 0 1 20-20zm-40 24a20.113 20.113 0 0 1 4.275.454 36.031 36.031 0 0 0 14.982 24.954 20 20 0 1 1 -19.257-25.408zm12 142a59.978 59.978 0 0 0 -8.926.855c-3.532.522-6.866 1.016-9 .322-2.3-.748-4.741-3.157-7.322-5.709a56.793 56.793 0 0 0 -6.484-5.772 57.684 57.684 0 0 0 -7.564-4.447c-3.206-1.667-6.235-3.242-7.63-5.159-1.37-1.883-1.936-5.242-2.536-8.8a59.074 59.074 0 0 0 -1.907-8.6 55.685 55.685 0 0 0 -3.44-7.845c-1.643-3.255-3.191-6.332-3.191-8.845s1.548-5.591 3.187-8.85a55.519 55.519 0 0 0 3.44-7.845 59.047 59.047 0 0 0 1.908-8.6c.6-3.556 1.165-6.913 2.535-8.8 1.4-1.917 4.424-3.492 7.63-5.159 1.131-.588 2.279-1.185 3.425-1.828a35.975 35.975 0 0 0 56.8-12.373 52.013 52.013 0 0 1 4.324 3.981 56.97 56.97 0 0 0 6.484 5.773 57.759 57.759 0 0 0 7.565 4.447c3.206 1.667 6.235 3.242 7.63 5.159 1.37 1.883 1.936 5.242 2.536 8.8a59.074 59.074 0 0 0 1.907 8.6 55.685 55.685 0 0 0 3.44 7.845c1.641 3.26 3.189 6.337 3.189 8.85s-1.548 5.591-3.187 8.85a55.557 55.557 0 0 0 -3.44 7.844c-.278.856-.529 1.743-.766 2.718q-5.048 2.1-9.961 4.581c-8.247 4.16-14.255 11.467-16.075 19.546a22.6 22.6 0 0 0 -.487 7.079c-2.152 2.1-4.2 3.925-6.154 4.559-2.137.693-5.471.2-9-.322a59.978 59.978 0 0 0 -8.93-.855zm140.719 33.763a117.225 117.225 0 0 0 -105.395-.021c-5.338 2.66-11.661 1.969-14.411-1.6a4.825 4.825 0 0 1 -.522-3.889c.6-2.675 2.934-6.385 7.678-8.779 3.543-1.791 7.194-3.435 10.9-4.906a29.926 29.926 0 0 0 23.327-1.737 100.092 100.092 0 0 1 19.8-7.5 133.835 133.835 0 0 1 13.453.082 131.948 131.948 0 0 1 52.389 14.062c4.739 2.393 7.071 6.1 7.673 8.78a6.576 6.576 0 0 1 .149 2.081q-2.03 2.192-4.153 4.293a14.016 14.016 0 0 1 -10.888-.866z"/><path d="m159.351 252h25.298v16.001h-25.298z" transform="matrix(.316 -.949 .949 .316 -129.047 340.96)"/><path d="m191.351 284h25.298v16h-25.298z" transform="matrix(.949 -.316 .316 .949 -81.87 79.495)"/><path d="m212 241.578h16v28.844h-16z" transform="matrix(.555 -.832 .832 .555 -115.039 297.048)"/></g></g></svg>