<svg height="512pt" viewBox="-143 0 512 512" width="512pt" xmlns="http://www.w3.org/2000/svg"><path d="m112.867188 512c-4.140626 0-7.5-3.355469-7.5-7.5v-304.476562c0-4.144532 3.359374-7.5 7.5-7.5 4.144531 0 7.5 3.355468 7.5 7.5v304.476562c0 4.140625-3.355469 7.5-7.5 7.5zm0 0" fill="#f9972d"/><path d="m22.890625 159.605469c-4.140625 0-7.5-3.359375-7.5-7.5v-75.949219c0-4.144531 3.359375-7.5 7.5-7.5 4.144531 0 7.5 3.355469 7.5 7.5v75.945312c0 4.144532-3.355469 7.503907-7.5 7.503907zm0 0" fill="#feb644"/><path d="m202.84375 159.605469c-4.140625 0-7.5-3.359375-7.5-7.5v-75.949219c0-4.144531 3.359375-7.5 7.5-7.5 4.144531 0 7.503906 3.355469 7.503906 7.5v75.945312c0 4.144532-3.359375 7.503907-7.503906 7.503907zm0 0" fill="#feb644"/><path d="m112.867188 45.988281c-4.140626 0-7.5-3.359375-7.5-7.5v-30.988281c0-4.144531 3.359374-7.5 7.5-7.5 4.144531 0 7.5 3.355469 7.5 7.5v30.988281c0 4.140625-3.355469 7.5-7.5 7.5zm0 0" fill="#feb644"/><path d="m119.304688 69.136719c-3.445313-3.816407-9.429688-3.816407-12.875 0-17.25 19.117187-27.542969 43.199219-27.542969 69.378906s10.292969 50.261719 27.542969 69.378906c3.445312 3.816407 9.429687 3.816407 12.875 0 17.25-19.117187 27.542968-43.199219 27.542968-69.378906s-10.292968-50.261719-27.542968-69.378906zm0 0" fill="#ffc850"/><path d="m54.96875 181.496094h-26.933594c-2.839844 0-5.144531 2.300781-5.144531 5.140625v26.933593c0 31.847657 26.054687 57.902344 57.898437 57.902344h26.933594c2.84375 0 5.144532-2.304687 5.144532-5.144531v-26.933594c0-31.84375-26.054688-57.898437-57.898438-57.898437zm0 0" fill="#ffc850"/><path d="m170.765625 181.496094h26.933594c2.84375 0 5.144531 2.300781 5.144531 5.140625v26.933593c0 31.847657-26.054688 57.902344-57.898438 57.902344h-26.933593c-2.839844 0-5.144531-2.304687-5.144531-5.144531v-26.933594c0-31.84375 26.054687-57.898437 57.898437-57.898437zm0 0" fill="#ffc850"/><path d="m49.753906 271.472656h-29.363281c-3.097656 0-5.605469 2.507813-5.605469 5.605469v29.363281c0 34.710938 28.402344 63.113282 63.117188 63.113282h29.359375c3.097656 0 5.605469-2.507813 5.605469-5.605469v-29.359375c0-34.714844-28.402344-63.117188-63.113282-63.117188zm0 0" fill="#ffc850"/><path d="m175.984375 271.472656h29.359375c3.097656 0 5.609375 2.507813 5.609375 5.605469v29.363281c0 34.710938-28.402344 63.113282-63.117187 63.113282h-29.359376c-3.097656 0-5.609374-2.507813-5.609374-5.605469v-29.359375c0-34.714844 28.402343-63.117188 63.117187-63.117188zm0 0" fill="#ffc850"/><path d="m40.238281 369.554688h-33.785156c-3.5625 0-6.453125 2.890624-6.453125 6.453124v33.785157c0 39.945312 32.683594 72.632812 72.628906 72.632812h33.789063c3.5625 0 6.449219-2.890625 6.449219-6.453125v-33.785156c0-39.949219-32.683594-72.632812-72.628907-72.632812zm0 0" fill="#ffc850"/><path d="m185.5 369.554688h33.785156c3.5625 0 6.453125 2.890624 6.453125 6.453124v33.785157c0 39.945312-32.6875 72.632812-72.632812 72.632812h-33.785157c-3.5625 0-6.453124-2.890625-6.453124-6.453125v-33.785156c0-39.949219 32.683593-72.632812 72.632812-72.632812zm0 0" fill="#ffc850"/><g fill="#feb644"><path d="m109.28125 138.515625c0-21.382813 6.867188-41.367187 18.785156-58.386719-2.675781-3.820312-5.597656-7.492187-8.761718-10.992187-3.441407-3.816407-9.429688-3.816407-12.875 0-17.25 19.117187-27.539063 43.199219-27.539063 69.378906s10.289063 50.261719 27.539063 69.378906c3.445312 3.816407 9.433593 3.816407 12.875 0 3.164062-3.503906 6.085937-7.171875 8.761718-10.992187-11.917968-17.019532-18.785156-37.003906-18.785156-58.386719zm0 0"/><path d="m53.285156 213.570312v-26.933593c0-2.597657 1.9375-4.726563 4.441406-5.070313-.914062-.046875-1.832031-.070312-2.757812-.070312h-26.933594c-2.839844 0-5.144531 2.300781-5.144531 5.140625v26.933593c0 31.847657 26.054687 57.902344 57.898437 57.902344h26.933594c.242188 0 .46875-.039062.699219-.070312-30.574219-1.453125-55.136719-26.910156-55.136719-57.832032zm0 0"/><path d="m143.257812 266.328125v-26.933594c0-30.917969 24.566407-56.375 55.140626-57.828125-.230469-.035156-.457032-.070312-.699219-.070312h-26.933594c-31.84375 0-57.898437 26.054687-57.898437 57.898437v26.933594c0 2.839844 2.304687 5.144531 5.144531 5.144531h26.933593c.925782 0 1.84375-.027344 2.757813-.070312-2.503906-.34375-4.445313-2.472656-4.445313-5.074219zm0 0"/><path d="m45.175781 306.4375v-29.359375c0-2.980469 2.324219-5.410156 5.261719-5.589844-.230469-.003906-.457031-.015625-.6875-.015625h-29.359375c-3.097656 0-5.609375 2.507813-5.609375 5.605469v29.363281c0 34.710938 28.40625 63.113282 63.117188 63.113282h29.359374c.117188 0 .234376-.007813.347657-.015626-34.398438-.375-62.429688-28.617187-62.429688-63.101562zm0 0"/><path d="m143.257812 363.949219v-29.359375c0-34.484375 28.035157-62.726563 62.433594-63.101563-.113281-.003906-.230468-.015625-.347656-.015625h-29.359375c-34.714844 0-63.117187 28.402344-63.117187 63.117188v29.359375c0 3.097656 2.511718 5.609375 5.609374 5.609375h29.359376c.230468 0 .453124-.015625.683593-.019532-2.933593-.179687-5.261719-2.609374-5.261719-5.589843zm0 0"/><path d="m30.390625 409.792969v-33.785157c0-3.5625 2.890625-6.453124 6.453125-6.453124h-30.390625c-3.5625 0-6.453125 2.890624-6.453125 6.453124v33.785157c0 39.945312 32.683594 72.632812 72.628906 72.632812h30.394532c-39.949219 0-72.632813-32.6875-72.632813-72.632812zm0 0"/><path d="m143.257812 475.972656v-33.785156c0-39.949219 32.6875-72.632812 72.632813-72.632812h-30.390625c-39.949219 0-72.632812 32.683593-72.632812 72.632812v33.785156c0 3.5625 2.890624 6.453125 6.453124 6.453125h30.390626c-3.5625 0-6.453126-2.890625-6.453126-6.453125zm0 0"/></g></svg>