<svg id="line_color" height="512" viewBox="0 0 74 74" width="512" xmlns="http://www.w3.org/2000/svg" data-name="line color"><path d="m5.155 35.624v-.444c0-10.039 7.32-18.168 16.36-18.168h30.97c9.04 0 16.36 8.129 16.36 18.168v.444" fill="#fcd462"/><path d="m68.84 35.18v.44h-3.66v-.44c0-10.04-7.32-18.17-16.36-18.17h3.66c9.04 0 16.36 8.13 16.36 18.17z" fill="#f7be56"/><path d="m68.837 43.326v.949c0 6.955-5.068 12.613-11.357 12.613h-40.973c-6.263 0-11.358-5.658-11.358-12.613v-.949" fill="#fcd462"/><path d="m68.84 43.33v.94c0 6.96-5.07 12.62-11.36 12.62h-40.97a11.113 11.113 0 0 1 -9.5-5.71 10.584 10.584 0 0 0 7 2.7h40.97c5.66 0 10.33-4.58 11.21-10.55z" fill="#f7be56"/><rect fill="#fe7058" height="8.595" rx="4.078" width="68" x="3" y="35.182"/><path d="m67.13 35.182h-2.9a4.1 4.1 0 0 1 3.87 4.3 4.1 4.1 0 0 1 -3.87 4.3h2.9a4.1 4.1 0 0 0 3.87-4.302 4.1 4.1 0 0 0 -3.87-4.298z" fill="#ea6453"/><path d="m24.615 17.012 1.67 5.253a2.761 2.761 0 0 1 -1.01 3.531 2.252 2.252 0 0 1 -3.19-1.121l-2.385-7.552a41.708 41.708 0 0 1 4.915-.111z" fill="#f7be56"/><path d="m24.188 26.6a2.617 2.617 0 0 1 -.779-.119 2.972 2.972 0 0 1 -1.777-1.589l-2.414-7.615a.5.5 0 0 1 .057-.423.5.5 0 0 1 .363-.225 42.936 42.936 0 0 1 4.986-.114.5.5 0 0 1 .467.349l1.67 5.252a3.256 3.256 0 0 1 -1.238 4.117 2.638 2.638 0 0 1 -1.335.367zm-3.83-9.033 2.2 6.96a1.952 1.952 0 0 0 1.144 1 1.634 1.634 0 0 0 1.317-.158 2.264 2.264 0 0 0 .81-2.889l-1.584-4.97c-1.324-.024-2.745-.028-3.887.054z" fill="#323c6b"/><path d="m39.055 17.01h-4.955l2.424 7.669a2.254 2.254 0 0 0 3.19 1.121 2.771 2.771 0 0 0 1.01-3.538z" fill="#f7be56"/><path d="m38.628 26.6a2.653 2.653 0 0 1 -.8-.124 2.947 2.947 0 0 1 -1.754-1.582l-2.448-7.73a.5.5 0 0 1 .477-.651h4.951a.5.5 0 0 1 .476.348l1.67 5.254a3.259 3.259 0 0 1 -1.238 4.122 2.659 2.659 0 0 1 -1.334.363zm-3.842-9.09 2.214 7.018a1.9 1.9 0 0 0 1.126.991 1.651 1.651 0 0 0 1.334-.151 2.266 2.266 0 0 0 .807-2.893l-1.578-4.965z" fill="#323c6b"/><path d="m53.515 17.046 1.65 5.219a2.761 2.761 0 0 1 -1.01 3.531 2.249 2.249 0 0 1 -3.19-1.121l-2.42-7.663z" fill="#f7be56"/><path d="m53.066 26.6a2.629 2.629 0 0 1 -.79-.122 2.954 2.954 0 0 1 -1.765-1.589l-2.443-7.723a.5.5 0 0 1 .074-.448.641.641 0 0 1 .406-.2l4.97.033a.5.5 0 0 1 .473.35l1.65 5.219a3.257 3.257 0 0 1 -1.241 4.11 2.649 2.649 0 0 1 -1.334.37zm-3.838-9.08 2.213 7.007a1.935 1.935 0 0 0 1.134 1 1.642 1.642 0 0 0 1.328-.156 2.263 2.263 0 0 0 .808-2.889l-1.563-4.933z" fill="#323c6b"/><path d="m9.847 35.182 3.741 4.66 15.375-4.695z" fill="#27ccbc"/><g fill="#323c6b"><path d="m13.588 40.342a.5.5 0 0 1 -.39-.187l-3.74-4.655a.5.5 0 0 1 .388-.813l19.116-.036a.5.5 0 0 1 .146.978l-15.375 4.7a.522.522 0 0 1 -.145.013zm-2.7-4.661 2.878 3.584 11.827-3.612z"/><path d="m65.972 40.819a.5.5 0 0 1 -.2-.04l-2.391-1.021a2 2 0 0 0 -1.4-.073l-2.665.834a3.025 3.025 0 0 1 -2.091-.107l-1.525-.654a2 2 0 0 0 -1.4-.073l-2.664.834a3.028 3.028 0 0 1 -2.092-.107l-1.531-.654a2 2 0 0 0 -1.4-.073l-2.665.834a3.025 3.025 0 0 1 -2.091-.107l-1.531-.654a2 2 0 0 0 -1.4-.073l-2.664.834a3.028 3.028 0 0 1 -2.092-.107l-1.531-.654a2 2 0 0 0 -1.4-.073l-2.665.834a3.025 3.025 0 0 1 -2.091-.107l-1.531-.654a.5.5 0 1 1 .392-.92l1.531.654a2 2 0 0 0 1.4.072l2.665-.833a3.023 3.023 0 0 1 2.092.107l1.531.654a2 2 0 0 0 1.4.072l2.665-.833a3.02 3.02 0 0 1 2.091.107l1.531.654a2 2 0 0 0 1.4.072l2.665-.833a3.023 3.023 0 0 1 2.092.107l1.531.654a2 2 0 0 0 1.4.072l2.662-.833a3.02 3.02 0 0 1 2.091.107l1.531.654a2 2 0 0 0 1.4.072l2.665-.833a3.023 3.023 0 0 1 2.092.107l2.39 1.021a.5.5 0 0 1 -.2.96z"/><path d="m68.845 36.124a.5.5 0 0 1 -.5-.5v-.444c0-9.742-7.115-17.668-15.861-17.668h-30.969c-8.745 0-15.86 7.926-15.86 17.668v.444a.5.5 0 0 1 -1 0v-.444c0-10.293 7.563-18.668 16.86-18.668h30.969c9.3 0 16.861 8.375 16.861 18.668v.444a.5.5 0 0 1 -.5.5z"/><path d="m57.479 57.388h-40.972c-6.538 0-11.858-5.883-11.858-13.113v-.949a.5.5 0 0 1 1 0v.949c0 6.679 4.871 12.113 10.858 12.113h40.972c5.988 0 10.858-5.434 10.858-12.113v-.949a.5.5 0 0 1 1 0v.949c0 7.23-5.319 13.113-11.858 13.113z"/><path d="m66.922 44.277h-59.844a4.583 4.583 0 0 1 -4.578-4.577v-.438a4.583 4.583 0 0 1 4.578-4.578h59.844a4.583 4.583 0 0 1 4.578 4.577v.439a4.583 4.583 0 0 1 -4.578 4.577zm-59.844-8.594a3.582 3.582 0 0 0 -3.578 3.578v.439a3.582 3.582 0 0 0 3.578 3.578h59.844a3.582 3.582 0 0 0 3.578-3.578v-.438a3.582 3.582 0 0 0 -3.578-3.578z"/><path d="m5.386 23.849a.5.5 0 0 1 -.428-.757 21.129 21.129 0 0 1 6.519-6.844.5.5 0 0 1 .546.838 20.138 20.138 0 0 0 -6.208 6.52.5.5 0 0 1 -.429.243z"/><path d="m14.75 15.58a.5.5 0 0 1 -.192-.962q.485-.2.98-.379a.5.5 0 1 1 .341.939q-.472.172-.937.364a.5.5 0 0 1 -.192.038z"/><path d="m56.51 60.719h-.7a.5.5 0 0 1 0-1h.7a.5.5 0 0 1 0 1z"/><path d="m53.25 60.719h-9.417a.5.5 0 0 1 0-1h9.417a.5.5 0 0 1 0 1z"/></g><path d="m50.625 32.581h-.812a.726.726 0 0 1 0-1.444h.812a.726.726 0 0 1 0 1.444z" fill="#fff"/><path d="m46.594 32.581h-10.226a.726.726 0 0 1 0-1.444h10.226a.726.726 0 0 1 0 1.444z" fill="#fff"/></svg>