<svg height="480pt" viewBox="0 -76 480 480" width="480pt" xmlns="http://www.w3.org/2000/svg" xmlns:xlink="http://www.w3.org/1999/xlink"><linearGradient id="a" gradientUnits="userSpaceOnUse" x1="60.688005" x2="407.592005" y1="302.621479" y2="-44.282521"><stop offset="0" stop-color="#41dfd0"/><stop offset="1" stop-color="#ee83ef"/></linearGradient><path d="m240 24.003906c-83.949219 0-152 68.054688-152 152 0 83.949219 68.050781 152 152 152s152-68.050781 152-152c-.09375-83.90625-68.089844-151.90625-152-152zm0 288c-75.109375 0-136-60.886718-136-136 0-75.109375 60.890625-136 136-136s136 60.890625 136 136c-.082031 75.078125-60.925781 135.917969-136 136zm14.046875-255.199218c-65.832031-7.757813-125.488281 39.320312-133.246094 105.152343-7.757812 65.832031 39.320313 125.488281 105.152344 133.25 4.738281.542969 9.507813.808594 14.277344.796875 63.582031-.007812 116.117187-49.605468 119.785156-113.078125 3.664063-63.472656-42.8125-118.789062-105.96875-126.121093zm50.402344 200.800781c-16.183594 12.851562-35.84375 20.550781-56.449219 22.113281v-15.714844h-16v15.578125c-1.390625-.113281-2.777344-.128906-4.167969-.289062-49.355469-5.824219-87.699219-45.738281-91.535156-95.289063h15.703125v-16h-15.566406c.109375-1.390625.117187-2.773437.285156-4.167968 5.816406-49.351563 45.734375-87.691407 95.28125-91.519532v15.6875h16v-15.527344c1.390625.105469 2.777344.082032 4.167969.242188 49.355469 5.824219 87.699219 45.738281 91.535156 95.285156h-15.703125v16h15.566406c-.109375 1.394532-.117187 2.777344-.285156 4.167969-3.152344 27.417969-17.140625 52.433594-38.847656 69.472656zm122.878906-257.414063c-24.960937 3.042969-43.632813 24.390625-43.328125 49.535156v14.277344c.015625 17.136719 9.160156 32.960938 24 41.53125v150.46875c0 13.257813 10.746094 24 24 24s24-10.742187 24-24v-150.46875c14.839844-8.570312 23.984375-24.394531 24-41.53125v-16c0-13.546875-5.722656-26.460937-15.757812-35.5625-10.035157-9.097656-23.449219-13.535156-36.929688-12.210937zm36.671875 63.8125c-.011719 12.714844-7.550781 24.210938-19.199219 29.296875-2.914062 1.273438-4.800781 4.148438-4.800781 7.328125v155.375c0 4.417969-3.582031 8-8 8s-8-3.582031-8-8v-155.375c0-3.179687-1.886719-6.054687-4.800781-7.328125-11.648438-5.085937-19.1875-16.582031-19.199219-29.296875v-14.277344c-.355469-16.902343 12.046875-31.367187 28.800781-33.601562 9.003907-.90625 17.972657 2.046875 24.679688 8.121094 6.710937 6.078125 10.53125 14.707031 10.519531 23.757812zm-216 48v64c0 2.125-.84375 4.15625-2.34375 5.65625l-32 32c-3.140625 3.03125-8.128906 2.988282-11.214844-.097656-3.085937-3.085938-3.128906-8.074219-.097656-11.214844l29.65625-29.652344v-60.691406c0-4.417968 3.582031-8 8-8s8 3.582032 8 8zm208-56c.285156 11.148438-5.25 21.644532-14.617188 27.699219l-5.261718 3.160156-8.242188-13.714843 5.273438-3.160157c4.332031-3.351562 6.867187-8.519531 6.867187-14 0-5.476562-2.535156-10.644531-6.867187-14l-5.273438-3.160156 8.242188-13.710937 5.261718 3.160156c9.375 6.0625 14.914063 16.570312 14.617188 27.726562zm-432 52.097656v147.902344c0 13.257813 10.746094 24 24 24s24-10.742187 24-24v-147.902344c15.144531-11.699218 24.007812-29.757812 24-48.894531v-51.203125c0-4.417968-3.582031-7.99999975-8-7.99999975h-80c-4.417969 0-8 3.58203175-8 7.99999975v51.203125c-.0078125 19.136719 8.855469 37.195313 24 48.894531zm-8-92.097656h8v48c0 4.417969 3.582031 8 8 8s8-3.582031 8-8v-48h16v48c0 4.417969 3.582031 8 8 8s8-3.582031 8-8v-48h8v43.203125c.015625 15.347657-7.65625 29.683594-20.441406 38.183594-2.210938 1.476563-3.546875 3.953125-3.558594 6.613281v152c0 4.417969-3.582031 8-8 8s-8-3.582031-8-8v-152c0-2.671875-1.335938-5.171875-3.558594-6.65625-12.773437-8.488281-20.445312-22.808594-20.441406-38.140625zm0 0" fill="url(#a)"/></svg>