<svg id="color" enable-background="new 0 0 24 24" height="512" viewBox="0 0 24 24" width="512" xmlns="http://www.w3.org/2000/svg"><path d="m9.083 11.739c-.546-.081-.924-.589-.843-1.136.183-1.236-.398-2.233-1.556-2.667-.517-.194-.779-.77-.585-1.287s.771-.776 1.288-.586c2.042.766 3.154 2.663 2.833 4.833-.082.548-.591.923-1.137.843z" fill="#607d8b"/><path d="m11.406 24.002c-.888 0-1.713-.347-2.372-.931-.004-.001-.015-.006-.029-.012-.872.405-.539.672-1.856.9-1.393.21-2.866-.395-4.161-1.701-1.358-1.358-2.337-3.278-2.753-5.404-.431-2.153-.257-4.26.491-5.931.718-1.623 1.883-2.648 3.279-2.883 1.202-.178 2.221.276 2.867.687.208.126.43.282.656.44.496.349 1.009.709 1.472.761.463-.051.976-.412 1.472-.76.226-.159.449-.315.669-.449.633-.402 1.655-.855 2.838-.681 1.412.238 2.577 1.263 3.297 2.889.747 1.667.921 3.774.49 5.931-.416 2.124-1.395 4.043-2.755 5.403-1.125 1.135-2.387 1.74-3.605 1.741z" fill="#ef5350"/><path d="m6.099 6.649c-.194.517.068 1.093.586 1.288 1.158.434 1.739 1.431 1.556 2.667-.044.3.025.547.161.734.319-.224.552-.655.552-1.439 0-2.476-2.855-3.25-2.855-3.25z" fill="#546d79"/><path d="m4.516 7.999c-.213 0-.432.018-.658.059-1.388.281-2.519 1.343-3.184 2.989-.693 1.694-.799 3.805-.298 5.943.485 2.111 1.525 3.998 2.927 5.312 1.125 1.063 2.359 1.626 3.547 1.626.224 0 .447-.02.667-.061 1.139-.236 1.028-.461 1.546-.8v-13.316c-.05.014-.101.025-.15.032-.465-.036-.989-.38-1.497-.712-.23-.151-.458-.3-.669-.419-.535-.316-1.317-.653-2.231-.653z" fill="#d04846"/><path d="m15.084 11.78c-.293-.293-.293-.768 0-1.061.42-.42.603-1.02.488-1.603l-.663-3.362c-.03-.153-.045-.31-.045-.47 0-1.334 1.086-2.42 2.42-2.42.16 0 .317.016.468.045l3.364.663c.583.115 1.182-.067 1.603-.488.292-.293.767-.293 1.061 0 .292.293.293.768 0 1.061-.774.774-1.875 1.111-2.953.899l-3.363-.663c-.584-.112-1.214.427-1.083 1.084l.662 3.361c.211 1.075-.125 2.179-.899 2.953-.292.294-.767.294-1.06.001z" fill="#80deea"/><path d="m15.614 12c.192 0 .384-.073.53-.22.774-.774 1.11-1.878.899-2.953-.029-.147-.68-3.392-.68-3.542 0-.512.461-.919.94-.919.053 0 .107.005.16.016l3.363.663c.21.041.421.061.631.061.862 0 1.699-.338 2.322-.96.293-.293.292-.768 0-1.061-.779 1.066-1.84 1.258-2.503 1.258-.373 0-.62-.061-.62-.061s-1.931-.618-3.267-.618c-.474 0-.874.078-1.085.289-.882.882-.609 1.547-.609 1.547s.43 2.25.597 3.75-1.208 2.53-1.208 2.53c.146.147.338.22.53.22z" opacity=".13"/><path d="m18.716 9.136c-.16 0-.317-.016-.468-.045l-3.364-.663c-.581-.113-1.182.068-1.603.488-.293.292-.768.292-1.061 0-.292-.293-.293-.768 0-1.061.774-.774 1.88-1.108 2.953-.899l3.363.663c.53.105 1.101-.334 1.1-.903 0-.15-.651-3.395-.68-3.542-.211-1.075.125-2.179.899-2.953.293-.293.768-.293 1.061 0s.293.768 0 1.061c-.42.42-.603 1.02-.488 1.603l.663 3.362c.03.153.045.31.045.47 0 1.333-1.086 2.419-2.42 2.419z" fill="#00bcd4"/><path d="m20.386 0c-.192 0-.384.073-.53.22-.774.774-1.11 1.878-.899 2.953.029.147.68 3.392.68 3.542 0 .512-.461.919-.94.919-.053 0-.107-.005-.16-.016l-3.363-.663c-.21-.041-.421-.061-.631-.061-.862 0-1.699.338-2.322.96-.293.293-.292.768 0 1.061.779-1.065 1.84-1.257 2.503-1.257.373 0 .62.061.62.061s1.931.618 3.267.618c.474 0 .874-.078 1.085-.289.882-.882.609-1.548.609-1.548s-.43-2.25-.597-3.75 1.208-2.53 1.208-2.53c-.146-.146-.338-.22-.53-.22z" fill="#00a4b9"/></svg>