<?xml version="1.0" encoding="iso-8859-1"?>
<!-- Generator: Adobe Illustrator 19.0.0, SVG Export Plug-In . SVG Version: 6.00 Build 0)  -->
<svg version="1.1" id="Capa_1" xmlns="http://www.w3.org/2000/svg" xmlns:xlink="http://www.w3.org/1999/xlink" x="0px" y="0px"
	 viewBox="0 0 512 512" style="enable-background:new 0 0 512 512;" xml:space="preserve">
<path style="fill:#FEA832;" d="M314.735,19.799l-19.799,61h-108.6l-19.799-61c-1.802-4.499-0.901-9.6,1.8-13.5
	c2.999-3.9,7.5-6.299,12.299-6.299h120c4.799,0,9.3,2.399,12.299,6.299C315.636,10.199,316.537,15.3,314.735,19.799z"/>
<path style="fill:#FF873C;" d="M294.936,80.799h-54.3V0h60c4.799,0,9.3,2.399,12.299,6.299c2.701,3.9,3.602,9.001,1.8,13.5
	L294.936,80.799z"/>
<path style="fill:#C8C6CD;" d="M315.636,91c-44.304,0-82.57,24.282-103.358,60h103.358c33.137,0,60,27.862,60,61
	c0,33.137-26.863,60-60,60v60c66.275,0,120-53.727,120-120C435.636,145.725,381.911,91,315.636,91z"/>
<path style="fill:#E5E5E5;" d="M373.836,272l-27.299,30H132.935l-25.499-30c15.601-22.5,35.7-41.7,60.901-55.501l6.899-20.7
	c12.299-37.2,9.6-78.098-8.101-113.2c-2.1-4.499-2.1-10.199,0.601-14.399c2.999-4.501,7.8-7.2,12.9-7.2h120
	c5.099,0,9.901,2.699,12.9,7.2c2.701,4.2,2.701,9.901,0.601,14.399c-17.701,35.101-20.4,76-8.101,113.2l6.899,20.7
	C338.136,230.3,358.236,249.5,373.836,272z"/>
<path style="fill:#D9D9D9;" d="M373.836,272l-27.299,30H240.636V61h60c5.099,0,9.901,2.699,12.9,7.2
	c2.701,4.2,2.701,9.901,0.601,14.399c-17.701,35.101-20.4,76-8.101,113.2l6.899,20.7C338.136,230.3,358.236,249.5,373.836,272z"/>
<path style="fill:#FEDB41;" d="M398.136,420.2l-16.8,59.099c-5.7,19.2-23.401,32.701-43.2,32.701h-195
	c-19.799,0-37.5-13.5-43.2-32.701l-16.8-59.099c-13.801-48.6-6.899-102.301,24.3-148.2h266.4
	C405.336,318.199,411.937,371.899,398.136,420.2z"/>
<path style="fill:#FCBF29;" d="M398.136,420.2l-16.8,59.099c-5.7,19.2-23.401,32.701-43.2,32.701h-97.5V272h133.2
	C405.336,318.199,411.937,371.899,398.136,420.2z"/>
<g>
</g>
<g>
</g>
<g>
</g>
<g>
</g>
<g>
</g>
<g>
</g>
<g>
</g>
<g>
</g>
<g>
</g>
<g>
</g>
<g>
</g>
<g>
</g>
<g>
</g>
<g>
</g>
<g>
</g>
</svg>
