<svg id="Capa_1" enable-background="new 0 0 512 512" height="512" viewBox="0 0 512 512" width="512" xmlns="http://www.w3.org/2000/svg"><g><g><circle cx="256" cy="256" fill="#fff5f5" r="241"/></g><path d="m497 256c0-133.101-107.899-241-241-241v482c133.101 0 241-107.899 241-241z" fill="#dfdef5"/><g><path d="m256 512c-68.38 0-132.667-26.629-181.02-74.98-48.351-48.353-74.98-112.64-74.98-181.02s26.629-132.667 74.98-181.02c48.353-48.351 112.64-74.98 181.02-74.98s132.667 26.629 181.02 74.98c48.351 48.353 74.98 112.64 74.98 181.02s-26.629 132.667-74.98 181.02c-48.353 48.351-112.64 74.98-181.02 74.98zm0-482c-124.617 0-226 101.383-226 226s101.383 226 226 226 226-101.383 226-226-101.383-226-226-226z" fill="#ccfc5c"/></g><path d="m256 0v30c124.617 0 226 101.383 226 226s-101.383 226-226 226v30c68.38 0 132.667-26.629 181.02-74.98 48.351-48.353 74.98-112.64 74.98-181.02s-26.629-132.667-74.98-181.02c-48.353-48.351-112.64-74.98-181.02-74.98z" fill="#9cdd05"/><g><path d="m188.095 415.829c-13.646 13.646-35.851 13.646-49.497 0-8.363-8.363-12.289-20.543-10.813-31.613-11.071 1.476-23.251-2.45-31.613-10.813-13.646-13.646-13.646-35.851 0-49.497 12.446-12.446 32.012-13.541 45.71-3.284l70.962-70.962 49.497 49.497-70.962 70.962c10.257 13.698 9.163 33.264-3.284 45.71z" fill="#f9f4c8"/><path d="m127.785 384.215c-1.476 11.071 2.45 23.251 10.813 31.613 13.646 13.646 35.851 13.646 49.497 0 12.446-12.446 13.541-32.012 3.284-45.71l70.962-70.962-24.749-24.749z" fill="#ffe79b"/><path d="m325.817 86.635c-26.232-1.161-51.85 9.976-74.082 32.209-33.415 33.415-62.355 99.111-52.175 143.649l.084.366 49.497 49.497.366.084c44.538 10.18 110.234-18.76 143.649-52.175 22.232-22.232 33.37-47.85 32.209-74.082-1.064-24.047-12.202-47.333-32.209-67.339s-43.292-31.144-67.339-32.209z" fill="#e68a44"/><path d="m249.141 312.357.366.084c44.538 10.18 110.234-18.76 143.649-52.175 22.232-22.232 33.37-47.85 32.209-74.082-1.064-24.047-12.202-47.333-32.209-67.339l-168.764 168.763z" fill="#bc5f19"/></g></g></svg>