<svg id="Layer_1" enable-background="new 0 0 510.937 510.937" height="512" viewBox="0 0 510.937 510.937" width="512" xmlns="http://www.w3.org/2000/svg"><path d="m459.976 91.808c33.788-20.826 21.02-72.911-18.571-75.701-13.204-.931-25.38 4.515-33.53 13.71-25.831-12.547-56.343 4.81-58.672 33.515-4.942-2.653-10.505-4.337-16.462-4.757-32.1-2.262-53.849 31.659-39.194 59.744-39.193 3.028-52.003 54.759-18.337 75.63-1.929 2.888-3.506 6.037-4.658 9.398-23.155-23.827-63.743-11.385-69.625 21.221-4.608-2.263-9.717-3.7-15.154-4.083-33.499-2.361-55.119 34.356-37.652 62.433-17.501 3.626-31.195 18.497-32.513 37.205-1.458 20.694 12.733 38.867 32.504 42.954 3.808 17.256 18.573 30.696 37.097 32.001 20.954 1.477 39.324-13.09 43.102-33.25 30.033 12.539 62.204-13.453 55.962-45.605 28.291-3.527 44.1-34.169 31.408-59.139 17.921-2.825 32.272-17.368 34.284-36.019 25.923 12.463 56.53-5.096 58.568-34.023.898-12.749-4.143-24.542-12.768-32.676 2.101-1.79 4.027-3.785 5.733-5.966 22.955 29.588 70.557 15.153 73.189-22.204.966-13.677-4.911-26.248-14.711-34.388z" fill="#e88793"/><path d="m437.517 39.455c1.011-14.344-15.832-22.309-26.204-13.081-1.212 1.078-2.36 2.228-3.438 3.444-25.83-12.547-56.343 4.81-58.672 33.514-35.337-18.968-74.166 19.513-55.656 54.987-39.194 3.028-52.003 54.759-18.337 75.63-1.929 2.888-3.506 6.037-4.658 9.398-23.153-23.824-63.742-11.392-69.625 21.221-5.467-2.684-11.638-4.206-18.225-4.186-31.695.099-51.52 35.309-34.581 62.536-17.501 3.626-31.195 18.497-32.513 37.205-1.458 20.694 12.733 38.867 32.504 42.954 1.602 7.26 9.496 10.756 15.863 7.688 11.449-5.517 20.037-16.234 22.488-29.307 30.159 12.593 62.173-13.619 55.962-45.605 28.291-3.526 44.1-34.169 31.408-59.139 17.921-2.825 32.272-17.367 34.284-36.019 4.992 2.4 10.559 3.838 16.49 4.021 37.077 1.144 56.939-44.662 29.31-70.72 2.101-1.79 4.027-3.785 5.734-5.966 22.894 29.509 69.833 15.081 73.123-21.384 1.262-13.993-4.652-26.905-14.647-35.207 10.844-6.684 18.426-18.308 19.39-31.984z" fill="#fc93a0"/><path d="m244.085 191.044c-21.049-1.483-39.495 13.222-43.157 33.523-5.467-2.684-11.638-4.206-18.225-4.186-31.695.099-51.52 35.309-34.581 62.536-21.267 4.407-35.678 24.882-32.072 46.769.04.01.095.06.163.146 5.955 7.499 16.529 9.545 24.192 3.801 7.985-5.985 13.754-14.844 15.691-25.175 30.159 12.593 62.173-13.619 55.962-45.605 28.291-3.526 44.1-34.169 31.408-59.139.453-.071.904-.15 1.352-.237 7.115-1.368 6.895-11.895-.733-12.433z" fill="#fda5b7"/><path d="m402.406 73.647c1.262-13.993-4.652-26.905-14.647-35.207 2.779-1.713 5.342-3.751 7.635-6.065 2.321-2.342.845-6.326-2.443-6.561-22.542-1.61-41.94 15.241-43.747 37.517-35.337-18.968-74.166 19.513-55.656 54.987-25.182 1.945-42.764 26.253-36.479 50.916 2.85 11.184 19.397 10.358 20.68-1.537 25.574 12.296 55.329-4.772 58.411-32.302 1.5-13.404-3.6-25.898-12.611-34.397 2.101-1.79 4.027-3.785 5.734-5.966 22.894 29.509 69.833 15.081 73.123-21.385z" fill="#fda5b7"/><path d="m481.522 19.613c-20.076-23.118-54.077-25.77-77.322-8.111-27.055-6.961-54.674 6.848-66.005 31.581-37.595-5.508-69.933 26.502-64.738 64.134-25.563 11.595-39.342 40.258-31.423 67.73-21.668-.318-41.164 11.54-51.035 30.014-39.445-5.641-72.567 30.11-63.617 69.104-30.216 18.038-37.462 59.13-13.812 86.313-36.589 40.26-69.492 83.44-95.725 126.188-6.565 10.698 1.231 24.371 13.621 24.371 5.379 0 10.633-2.713 13.652-7.634 25.396-41.382 57.308-83.204 92.813-122.178 21.819 40.377 79.514 39.778 100.585-.408 31.752 3.116 60.004-20.59 62.358-52.473 23.737-9.815 38.534-34.751 34.612-61.05 11.13-5.788 20.084-15.134 25.391-26.499 35.689 4.293 66.512-25.128 63.573-61.219 48.248 8.099 83.391-44.678 57.807-86.097 17.63-21.186 17.865-52.344-.735-73.766zm-18.115 39.086c-.563 7.986-4.984 15.272-11.826 19.489-9.307 5.736-10.241 18.94-1.827 25.929 6.183 5.135 9.538 12.968 8.976 20.954-1.61 22.817-30.619 31.522-44.589 13.52-6.39-8.238-18.833-8.246-25.243-.049-1.022 1.307-2.201 2.532-3.504 3.642-7.245 6.169-7.538 17.283-.604 23.822 10.701 10.092 10.458 27.265-.741 36.989-7.731 6.712-18.425 7.845-27.147 3.65-9.983-4.798-21.661 1.759-22.842 12.704-1.204 11.165-9.785 20.183-20.867 21.93-10.739 1.693-16.689 13.385-11.771 23.055 7.772 15.292-2.032 33.882-19.124 36.012-9.161 1.142-15.496 9.809-13.728 18.925 3.808 19.623-15.83 35.418-34.089 27.793-9.396-3.927-20.02 1.827-21.893 11.817-2.329 12.428-13.603 21.132-26.252 20.237-10.943-.771-20.235-8.785-22.598-19.488-.323-1.464-.849-2.846-1.537-4.126 21.719-22.054 44.451-42.877 67.619-61.783 6.846-5.587 7.867-15.666 2.28-22.512-5.587-6.845-15.665-7.867-22.513-2.28-25.349 20.686-50.207 43.586-73.859 67.88-9.886-14.82-1.48-34.674 15.64-38.222 10.88-2.254 16.214-14.674 10.34-24.119-13.134-21.105 9.754-46.539 32.17-35.536 9.54 4.682 20.912-1.078 22.797-11.522 3.604-19.982 28.372-27.35 42.404-12.911 8.291 8.531 22.735 5.339 26.609-5.961.686-1.999 1.638-3.917 2.829-5.702 5.02-7.516 2.818-17.716-4.876-22.485-20.573-12.753-12.629-44.243 11.139-46.078 11.423-.883 18.262-13.177 12.953-23.354-11.327-21.706 12.377-45.048 33.902-33.488 10.147 5.447 22.583-1.311 23.516-12.803 1.4-17.251 19.883-28.116 35.733-20.417 6.454 3.137 14.205 1.591 18.965-3.779 15.71-17.726 45.235-5.562 43.558 18.267z"/></svg>