<svg height="464pt" viewBox="0 0 464.27511 464" width="464pt" xmlns="http://www.w3.org/2000/svg"><path d="m.273438 432.136719h464v32h-464zm0 0" fill="#3d4d63"/><path d="m444.890625 57.632812c-22.746094-35.792968-62.207031-57.480468-104.617187-57.496093-54.902344.796875-109.421876 9.25-161.992188 25.113281-48.476562 13.871094-101.765625 28.128906-146.550781 51.597656-14.191407 7.597656-24.582031 20.757813-28.6875 36.320313-4.441407 17.019531-2.6875 275.847656-2.769531 318.96875h464v-307.847657c0-23.609374-6.722657-46.726562-19.382813-66.65625zm0 0" fill="#f26666"/><path d="m444.890625 57.632812c-22.746094-35.792968-62.207031-57.480468-104.617187-57.496093-2.847657 0-5.6875.136719-8.527344.191406 1.089844 1.601563 2.210937 3.128906 3.242187 4.753906 15.183594 23.894531 23.25 51.617188 23.246094 79.925781v347.128907h106.039063v-307.847657c0-23.609374-6.722657-46.726562-19.382813-66.65625zm0 0" fill="#e94f4f"/><path d="m464.273438 432.136719h-464c1.699218-16.289063 4.417968-31.847657 17.664062-42.839844 20.746094-17.230469 51.640625-26.398437 76.800781-35 27.417969-9.390625 55.375-17.085937 83.199219-25.046875 52.632812-15.863281 107.21875-24.316406 162.1875-25.113281 68.566406-.003907 124.15625 55.582031 124.148438 124.152343zm0 0" fill="#e04646"/><path d="m393.796875 361.320312c3.84375-12.457031 10.5625-23.839843 19.605469-33.230468-4.425782-3.230469-9.054688-6.171875-13.863282-8.800782-9.632812 10.777344-16.8125 23.519532-21.039062 37.34375l-5.273438 17.207032c-10.351562 30.585937-39.332031 50.933594-71.613281 50.277344-32.28125-.652344-60.417969-22.152344-69.523437-53.132813l-3.285156-9.832031c-4.824219-14.546875-12.632813-27.925782-22.929688-39.277344-6 1.480469-11.980469 3.035156-17.9375 4.65625 11.828125 10.808594 20.675781 24.472656 25.699219 39.6875l3.199219 9.597656c5.804687 19.257813 17.890624 36.015625 34.335937 47.601563-27.6875-2.183594-54.554687-9.199219-72.9375-33.527344-1.792969-2.402344-3.519531-4.800781-5.230469-7.199219-7.269531-12.378906-17.855468-22.476562-30.5625-29.152344-7.808594-3.476562-16.105468-5.738281-24.597656-6.707031-7.746094 2.402344-15.464844 4.882813-23.136719 7.511719-10.175781 3.480469-21.289062 7.089844-32.296875 11.257812l28.953125-1.910156c.324219-.019531.648438-.058594.96875-.121094 14.640625-2.871093 29.804688-1.289062 43.535157 4.542969 10.0625 5.59375 18.394531 13.84375 24.089843 23.847657 1.804688 2.535156 3.613281 5.089843 5.511719 7.601562 11.683594 15.398438 27.867188 26.78125 46.308594 32.574219h128.296875c22.847656-10.296875 40.375-29.644531 48.375-53.390625zm0 0" fill="#f26666"/><path d="m446.171875 363.867188c-.945313 1.03125-1.90625 2.054687-2.761719 3.101562-3.65625 4.386719-6.699218 9.25-9.046875 14.457031l-11.03125 24.097657c-6.632812 15.796874-21.929687 26.21875-39.058593 26.613281h39.320312c5.992188-5.671875 10.839844-12.441407 14.28125-19.941407l11.0625-24.167968c1.421875-3.074219 3.175781-5.984375 5.226562-8.683594-2.296874-5.339844-4.96875-10.511719-7.992187-15.476562zm0 0" fill="#f26666"/><path d="m111.292969 409.457031-2.523438-3.648437c-8.261719-12.039063-16.796875-24.488282-31.390625-30.285156-9.292968-3.449219-19.214844-4.875-29.105468-4.1875-10.871094 4.574218-21.070313 10.605468-30.316407 17.929687-.683593.558594-1.210937 1.175781-1.832031 1.761719l16.148438-2.035156c12.984374-2.742188 26.445312-2.269532 39.203124 1.386718 10.070313 4 16.894532 13.949219 24.117188 24.488282l2.578125 3.734374c3.46875 5.007813 7.554687 9.554688 12.167969 13.535157h65.238281l-.09375-.941407c-28.359375 2.8125-48.945313.140626-64.191406-21.738281zm0 0" fill="#f26666"/><path d="m358.9375 296.136719.113281-.613281c-5.347656-.726563-10.738281-1.105469-16.136719-1.128907-.679687 2.902344-1.496093 6.253907-2.398437 9.757813 5.421875.023437 10.839844.398437 16.214844 1.128906.816406-3.246094 1.570312-6.367188 2.207031-9.144531zm0 0" fill="#f26666"/><path d="m265.609375 294.800781c-5.359375.738281-10.710937 1.503907-16.054687 2.402344l.527343 1.773437c.085938.289063.1875.570313.304688.847657.847656 2 2.863281 6.679687 4.984375 11.738281 5.390625-.90625 10.800781-1.6875 16.222656-2.402344-2.46875-6.039062-4.992188-11.925781-5.984375-14.359375zm0 0" fill="#f26666"/><path d="m273.449219 360.050781c8.136719 15.285157 20.136719 24.085938 32.96875 24.085938h.183593c12.679688-.085938 24.425782-8.800781 32.203126-23.960938 7.820312-17.644531 13.832031-36.035156 17.949218-54.894531-5.375-.734375-10.789062-1.117188-16.214844-1.144531-3.71875 16.707031-9.058593 33.007812-15.945312 48.671875-4.984375 9.730468-11.574219 15.328125-18.101562 15.328125h-.074219c-6.710938 0-13.597657-5.671875-18.816407-15.542969-4.363281-9.066406-7.792968-18.550781-10.238281-28.3125-.71875-2.703125-3.199219-8.992188-5.769531-15.199219-5.421875.75-10.832031 1.535157-16.222656 2.398438 2.792968 6.671875 5.777344 14.015625 6.542968 16.914062 2.742188 10.921875 6.609376 21.53125 11.535157 31.65625zm0 0" fill="#f26666"/><g fill="#f59898"><path d="m464.132812 120.304688h-.175781c-40.707031 1.601562-62.152343 17.800781-82.898437 33.457031-20.742188 15.65625-40.253906 30.375-79.984375 30.375-39.726563 0-59.277344-14.757813-80-30.398438-21.878907-16.511719-44.519531-33.601562-89.597657-33.601562-45.082031 0-67.722656 17.089843-89.601562 33.601562-12.351562 10.316407-26.304688 18.550781-41.304688 24.382813-.070312 5.503906-.132812 11.214844-.191406 17.136718l2.320313-.9375c17.804687-6.234374 34.332031-15.648437 48.777343-27.78125 20.703126-15.625 40.269532-30.402343 80-30.402343 39.726563 0 59.277344 14.761719 80 30.402343 21.902344 16.527344 44.542969 33.597657 89.597657 33.597657 45.058593 0 67.730469-17.078125 89.601562-33.597657 19.640625-14.832031 38.191407-28.800781 73.597657-30.242187v-12c0-1.34375-.09375-2.664063-.140626-3.992187zm0 0"/><path d="m211.378906 54.488281c21.921875 16.546875 44.59375 33.648438 89.695313 33.648438 45.105469 0 67.703125-17.070313 89.601562-33.597657 9.671875-7.824218 20.125-14.621093 31.199219-20.289062l2.398438-1.3125c-4.273438-3.914062-8.820313-7.523438-13.597657-10.800781-10.394531 5.714843-20.296875 12.289062-29.601562 19.648437-20.734375 15.609375-40.285157 30.351563-80 30.351563-39.710938 0-59.328125-14.773438-80.054688-30.398438-9.449219-7.472656-19.507812-14.136719-30.074219-19.921875-4.222656 1.136719-8.453124 2.257813-12.664062 3.457032l-15.070312 4.296874 13.695312 3.144532c12.335938 5.824218 23.914062 13.136718 34.472656 21.773437zm0 0"/><path d="m381.074219 265.738281c-20.695313 15.625-40.253907 30.398438-80 30.398438-39.742188 0-59.277344-14.757813-80-30.398438-21.878907-16.511719-44.519531-33.601562-89.597657-33.601562-45.082031 0-67.722656 17.089843-89.601562 33.601562-12.5 10.445313-26.640625 18.75-41.8476562 24.582031v17.136719l2.6718752-1.136719c17.804687-6.234374 34.332031-15.648437 48.777343-27.78125 20.703126-15.625 40.269532-30.402343 80-30.402343 39.726563 0 59.277344 14.761719 80 30.402343 21.902344 16.527344 44.542969 33.597657 89.597657 33.597657 45.058593 0 67.730469-17.078125 89.601562-33.597657 19.640625-14.832031 38.191407-28.800781 73.597657-30.242187v-16h-.316407c-40.707031 1.625-62.152343 17.808594-82.882812 33.441406zm0 0"/><path d="m381.074219 209.738281c-20.695313 15.625-40.253907 30.398438-80 30.398438-39.742188 0-59.277344-14.757813-80-30.398438-21.878907-16.511719-44.519531-33.601562-89.597657-33.601562-45.082031 0-67.722656 17.089843-89.601562 33.601562-12.460938 10.429688-26.566406 18.71875-41.742188 24.527344 0 5.632813-.019531 11.316406-.0585932 17.046875l2.6250002-.992188c17.804687-6.234374 34.332031-15.648437 48.777343-27.78125 20.703126-15.625 40.269532-30.402343 80-30.402343 39.726563 0 59.277344 14.761719 80 30.402343 21.902344 16.527344 44.542969 33.597657 89.597657 33.597657 45.058593 0 67.730469-17.078125 89.601562-33.597657 19.640625-14.832031 38.191407-28.800781 73.597657-30.242187v-16h-.316407c-40.707031 1.625-62.152343 17.808594-82.882812 33.441406zm0 0"/><path d="m51.476562 110.539062c20.703126-15.625 40.269532-30.402343 80-30.402343 39.726563 0 59.277344 14.761719 80 30.402343 21.902344 16.527344 44.542969 33.597657 89.597657 33.597657 45.058593 0 67.695312-17.078125 89.601562-33.597657 17.71875-13.363281 34.464844-25.992187 63.566407-29.441406h2.265624c-1.964843-5.289062-4.285156-10.4375-6.953124-15.40625-31.609376 4.429688-50.398438 18.398438-68.511719 32.070313-20.71875 15.617187-40.289063 30.398437-80 30.398437-39.710938 0-59.28125-14.757812-80-30.398437-21.847657-16.535157-44.488281-33.625-89.566407-33.625-45.082031 0-67.722656 17.089843-89.601562 33.601562-11.941406 9.953125-25.355469 17.996094-39.761719 23.839844-.292969 4.382813-.558593 10.144531-.796875 17.167969l1.335938-.417969c17.820312-6.230469 34.363281-15.648437 48.824218-27.789063zm0 0"/><path d="m301.074219 32.136719c25.820312.722656 51.207031-6.722657 72.542969-21.277344l7.761718-3.640625c-7.492187-2.640625-15.222656-4.554688-23.078125-5.714844-17.335937 10.121094-37.160156 15.191406-57.226562 14.632813-15.53125.292969-30.957031-2.644531-45.296875-8.625-8.597656 1.441406-17.167969 3.105469-25.710938 4.898437l8.578125 4.566406c19.113281 10.457032 40.648438 15.683594 62.429688 15.160157zm0 0"/><path d="m457.644531 288.800781c-22.449219 2.703125-43.125 13.550781-58.105469 30.488281 4.808594 2.628907 9.4375 5.570313 13.863282 8.800782 12.152344-12.941406 28.453125-21.222656 46.074218-23.398438 1.726563-.195312 3.445313-.335937 4.796876-.394531v-16h-.328126c-2.070312.089844-4.175781.265625-6.300781.503906zm0 0"/><path d="m138.15625 288.386719c-2.226562-.160157-4.457031-.25-6.679688-.25-45.074218 0-67.722656 17.089843-89.601562 33.601562-12.464844 10.449219-26.585938 18.742188-41.7851562 24.542969v16.953125l2.5703122-.914063c17.816406-6.230468 34.359375-15.644531 48.816406-27.78125 20.703126-15.625 40.269532-30.402343 80-30.402343 1.832032 0 3.671876.074219 5.511719.199219 18.988281 1.484374 36.933594 9.304687 50.949219 22.203124 5.957031-1.601562 11.9375-3.152343 17.9375-4.65625-17.429688-19.457031-41.679688-31.453124-67.71875-33.496093zm0 0"/></g><path d="m464.273438 432.136719h-166.664063l-32 32h198.664063zm0 0" fill="#39475c"/></svg>