<?xml version="1.0" encoding="iso-8859-1"?>
<!-- Generator: Adobe Illustrator 19.0.0, SVG Export Plug-In . SVG Version: 6.00 Build 0)  -->
<svg version="1.1" id="Layer_1" xmlns="http://www.w3.org/2000/svg" xmlns:xlink="http://www.w3.org/1999/xlink" x="0px" y="0px"
	 viewBox="0 0 512 512" style="enable-background:new 0 0 512 512;" xml:space="preserve">
<path style="fill:#DCE0E2;" d="M256,236.482c-95.083,0-256-16.663-256-79.112v196.146c0,62.448,160.917,79.112,256,79.112
	s256-16.663,256-79.112V157.37C512,219.82,351.083,236.482,256,236.482z"/>
<path style="fill:#EBECED;" d="M36.655,155.517c2.283,4.479,17.187,17.474,62.45,28.896C141.772,195.181,197.492,201.11,256,201.11
	s114.228-5.929,156.896-16.697c45.265-11.422,60.168-24.417,62.45-28.896c-2.283-4.476-17.184-17.471-62.447-28.895
	c-42.667-10.769-98.39-16.699-156.898-16.699s-114.228,5.93-156.896,16.699C53.839,138.046,38.936,151.042,36.655,155.517z"/>
<path style="fill:#E95353;" d="M256,236.482c-60.134,0-146.589-6.672-202.029-27.37v196.146
	c55.44,20.698,141.893,27.37,202.029,27.37c58.818,0,142.814-6.382,198.341-26.029V283.561v-27.823v-45.284
	C398.813,230.1,314.818,236.482,256,236.482z"/>
<path style="fill:#DCE0E2;" d="M256,237.595c-95.083,0-256-16.663-256-79.112c0-62.45,160.917-79.113,256-79.113
	s256,16.663,256,79.113S351.083,237.595,256,237.595z M36.655,155.517c2.283,4.479,17.187,17.474,62.45,28.896
	C141.772,195.181,197.492,201.11,256,201.11s114.228-5.929,156.896-16.697c45.265-11.422,60.168-24.417,62.45-28.896
	c-2.283-4.476-17.184-17.471-62.447-28.895c-42.667-10.769-98.39-16.699-156.898-16.699s-114.228,5.93-156.896,16.699
	C53.839,138.046,38.936,151.042,36.655,155.517z"/>
<path style="fill:#A4A4A5;" d="M256,109.924c-11.331,0-22.552,0.16-33.601,0.471l-6.678,24.544c0,5.241,5.98,9.49,13.357,9.49
	h53.843c7.376,0,13.357-4.248,13.357-9.49l-6.678-24.544C278.555,110.084,267.331,109.924,256,109.924z"/>
<g>
	<path style="fill:#EFAC52;" d="M358.805,301.843c-23.632-22.045-54.432-34.186-86.725-34.186
		c-32.294,0-63.092,12.141-86.725,34.186c-1.129,1.052-1.769,2.527-1.769,4.069c0,1.544,0.64,3.016,1.769,4.069
		c23.631,22.046,54.431,34.187,86.725,34.187s63.093-12.141,86.725-34.187c1.129-1.053,1.769-2.527,1.769-4.069
		C360.574,304.37,359.934,302.895,358.805,301.843z"/>
	<path style="fill:#EFAC52;" d="M193.631,301.843c-11.27-10.513-24.209-18.814-38.455-24.671c-1.715-0.707-3.672-0.51-5.214,0.524
		c-1.544,1.033-2.468,2.766-2.468,4.622v47.189c0,1.857,0.925,3.591,2.468,4.622c0.931,0.624,2.01,0.943,3.098,0.943
		c0.716,0,1.435-0.138,2.115-0.419c14.246-5.858,27.183-14.159,38.455-24.673c1.129-1.052,1.77-2.527,1.77-4.069
		C195.4,304.37,194.759,302.895,193.631,301.843z"/>
</g>
<path style="fill:#F4B76E;" d="M358.805,301.843c-14.131-13.183-31.323-23.107-49.714-28.699c-2.33-0.71-4.847,0.179-6.219,2.19
	c-6.399,9.393-9.781,20.381-9.781,31.777c0,10.455,2.884,20.673,8.341,29.551c1.031,1.678,2.844,2.651,4.742,2.651
	c0.518,0,1.042-0.072,1.558-0.223c18.918-5.523,36.578-15.588,51.073-29.108c1.129-1.052,1.769-2.527,1.769-4.069
	C360.574,304.37,359.934,302.895,358.805,301.843z"/>
<g>
	<path style="fill:#F46E6E;" d="M256,380.264c-24.426,0-50.424-1.081-75.181-3.125c-4.596-0.38-8.013-4.412-7.632-9.007
		c0.378-4.595,4.411-8.028,9.007-7.632c24.309,2.008,49.831,3.069,73.807,3.069c22.299,0,46.126-0.926,68.906-2.677
		c4.598-0.377,8.609,3.086,8.963,7.682c0.353,4.597-3.086,8.609-7.683,8.963C302.988,379.321,278.718,380.264,256,380.264z"/>
	<path style="fill:#F46E6E;" d="M256,408.772c-24.426,0-50.424-1.081-75.181-3.125c-4.596-0.38-8.013-4.412-7.632-9.007
		c0.378-4.595,4.411-8.014,9.007-7.632c24.309,2.008,49.831,3.069,73.807,3.069c22.299,0,46.126-0.926,68.906-2.677
		c4.598-0.371,8.609,3.085,8.963,7.682c0.353,4.597-3.086,8.609-7.683,8.963C302.988,407.831,278.718,408.772,256,408.772z"/>
</g>
<g style="opacity:0.15;">
	<path style="fill:#202020;" d="M18.922,353.517V190.697C7.004,181.398,0,170.382,0,157.372v196.146
		c0,62.448,160.917,79.112,256,79.112c3.085,0,6.244-0.019,9.461-0.055C169.561,431.497,18.922,413.938,18.922,353.517z"/>
</g>
<g>
</g>
<g>
</g>
<g>
</g>
<g>
</g>
<g>
</g>
<g>
</g>
<g>
</g>
<g>
</g>
<g>
</g>
<g>
</g>
<g>
</g>
<g>
</g>
<g>
</g>
<g>
</g>
<g>
</g>
</svg>
