<svg id="Capa_1" enable-background="new 0 0 512 512" height="512" viewBox="0 0 512 512" width="512" xmlns="http://www.w3.org/2000/svg"><g><g><path clip-rule="evenodd" d="m296.946 221.729c-132.12-49.21-280.851 41.018-258.118 225.64h155.591c-3.77-12.926-2.268-24.662.028-35.83l-85.378-13.408c-13.549-2.126-20.948-17.547-17.234-30.728 1.304-4.592 3.572-8.306 7.086-11.537l59.13-58.536c13.691-13.578 36.028-13.465 49.605.255 13.578 13.691 13.464 36.029-.255 49.607l-15.647 15.506 27.354 4.422c12.047 1.956 35.546 19.134 21.033 43.937-4.195 10.913-11.508 19.332-16.979 36.312h72.509c-4.224-4.961-6.746-11.367-6.746-18.397 0-15.676 12.699-28.403 28.374-28.403 15.704 0 28.403 12.728 28.403 28.403 0 7.03-2.551 13.436-6.775 18.397h63.381c-.709-.794-1.417-1.616-2.098-2.495-10.913-14.173-19.53-44.022-12.954-62.958 17.149-1.304 39.259 10.262 52.1 22.536 9.638-9.213 24.519-18.057 38.607-21.317 12.586-47.849 8.192-101.084-20.749-76.933-18.453 15.336-35.206 10.261-49.889-2.409-11.593 25.115-34.695 42.747-63.977 42.747-39.599 0-71.715-32.117-71.715-71.717 0-21.884 9.836-40.338 25.313-53.094z" fill="#ffcd69" fill-rule="evenodd"/></g><g><path clip-rule="evenodd" d="m158.051 297.329-59.13 58.536c-3.515 3.232-5.783 6.945-7.086 11.537-3.713 13.181 3.685 28.602 17.234 30.728l85.378 13.408c-2.296 11.169-3.798 22.904-.028 35.83h28.743c5.471-16.98 12.784-25.399 16.979-36.312 14.513-24.803-8.986-41.981-21.033-43.937l-27.354-4.422 15.647-15.506c13.719-13.578 13.833-35.915.255-49.607-13.578-13.719-35.914-13.833-49.605-.255z" fill="#ffe6b4" fill-rule="evenodd"/></g><g><path clip-rule="evenodd" d="m296.946 221.729c-15.477 12.756-25.313 31.21-25.313 53.093 0 39.6 32.116 71.717 71.715 71.717 29.281 0 52.383-17.632 63.977-42.747 4.11-8.872 6.775-18.68 7.738-28.97l3.94-41.301.51-5.159c1.587-16.725-12.982-31.295-29.707-29.707l-5.159.51-41.3 3.94c-17.659 1.673-33.872 8.277-46.401 18.624z" fill="#ffe6b4" fill-rule="evenodd"/></g><g><path clip-rule="evenodd" d="m415.261 168.522-30.614 30.643 5.159-.51c16.724-1.587 31.294 12.983 29.707 29.707l-.51 5.159 30.614-30.643c5.556 4.904 12.869 7.88 20.834 7.88 17.433 0 31.549-14.117 31.549-31.522 0-17.433-14.116-31.55-31.549-31.55 0-17.405-14.116-31.521-31.521-31.521s-31.521 14.117-31.521 31.521c.001 7.995 2.977 15.28 7.852 20.836z" fill="#e6dfe1" fill-rule="evenodd"/></g><g><path clip-rule="evenodd" d="m433.856 410.489c-9.808 12.728-8.532 27.61-3.572 36.879h46.09c13.209-14.343 21.486-46.914 15.08-65.452-4.28-.34-8.844.142-13.493 1.219-14.088 3.26-28.97 12.104-38.607 21.317-2.096 2.012-3.967 4.053-5.498 6.037z" fill="#d0f2d2" fill-rule="evenodd"/></g><g><path clip-rule="evenodd" d="m387.256 381.916c-6.576 18.936 2.041 48.785 12.954 62.958.68.879 1.389 1.701 2.098 2.495h27.977c-4.961-9.269-6.236-24.151 3.572-36.879 1.531-1.984 3.401-4.025 5.499-6.038-12.841-12.275-34.951-23.84-52.1-22.536z" fill="#a0e5a5" fill-rule="evenodd"/></g><g><path clip-rule="evenodd" d="m317.298 400.568c-15.675 0-28.374 12.728-28.374 28.403 0 7.03 2.523 13.436 6.746 18.397h43.256c4.224-4.961 6.775-11.367 6.775-18.397 0-15.675-12.699-28.403-28.403-28.403z" fill="#ff7b79" fill-rule="evenodd"/></g><g><path clip-rule="evenodd" d="m223.161 447.368h-28.743-155.59-28.828l20.437 49.635h451.097l20.466-49.635h-25.625-46.09-27.978-63.381-43.256z" fill="#e6dfe1" fill-rule="evenodd"/></g><g><path d="m502 437.368h-7.478c8.631-18.651 11.837-42.939 6.384-58.718-1.301-3.767-4.714-6.4-8.688-6.705-.487-.037-.982-.055-1.475-.076 5.308-27.679 7.702-67.173-10.396-78.679-4.906-3.12-15.271-6.572-29.525 5.32-10.512 8.738-20.147 9.466-31.302 2.048 2.786-7.72 4.665-16.027 5.497-24.784l3.615-37.745 22.188-22.209c5.991 3.22 12.725 4.938 19.63 4.938 22.91 0 41.549-18.626 41.549-41.521 0-19.816-13.943-36.437-32.534-40.565-4.129-18.574-20.736-32.506-40.535-32.506-22.895 0-41.521 18.627-41.521 41.521 0 6.897 1.713 13.629 4.925 19.625l-22.202 22.223-37.729 3.615c-18.083 1.716-34.236 7.911-47.268 17.323-32.47-11.182-66.773-14.661-99.573-10.025-34.357 4.854-66.542 18.492-93.074 39.439-27.271 21.53-48.415 50.8-61.145 84.645-12.708 33.786-17.276 71.698-13.625 112.836h-17.718c-3.336 0-6.453 1.664-8.309 4.436-1.856 2.771-2.208 6.287-.938 9.372l20.437 49.636c1.543 3.747 5.195 6.192 9.247 6.192h180.648c5.523 0 10-4.478 10-10s-4.477-10-10-10h-173.95l-12.203-29.636h13.862c.007 0 .014.001.021.001.005 0 448.246-.001 448.246-.001l-12.22 29.636h-173.955c-5.522 0-10 4.478-10 10s4.478 10 10 10h180.648c4.051 0 7.701-2.443 9.245-6.188l20.466-49.636c1.271-3.085.921-6.601-.935-9.374-1.856-2.774-4.973-4.438-8.31-4.438zm-79.664-261.778c3.724-3.727 3.917-9.703.442-13.663-3.462-3.944-5.368-9.002-5.368-14.239 0-11.867 9.654-21.521 21.521-21.521 8.922 0 16.59 5.459 19.848 13.211-3.502 1.029-6.871 2.51-10.009 4.442-4.704 2.896-6.17 9.055-3.275 13.758 2.896 4.702 9.054 6.168 13.758 3.275 3.364-2.07 7.236-3.165 11.199-3.165 11.882 0 21.549 9.667 21.549 21.55 0 11.867-9.667 21.521-21.549 21.521-5.239 0-10.288-1.91-14.216-5.378-3.962-3.496-9.959-3.31-13.692.43l-15.806 15.822c-1.869-4.428-4.608-8.531-8.139-12.062-3.536-3.536-7.645-6.278-12.081-8.147zm-78.034 37.47 46.449-4.45c.513-.049 1.024-.072 1.535-.072 4.469 0 8.834 1.84 12.169 5.175 3.717 3.717 5.577 8.713 5.104 13.697l-4.45 46.46c-.001.003-.001.006-.001.008-3.446 36.31-29.42 62.662-61.761 62.662-34.029 0-61.715-27.687-61.715-61.717.001-32.343 26.353-58.317 62.67-61.763zm-112.793 192.947c-.273.467-.508.956-.703 1.462-1.458 3.793-3.446 7.396-5.748 11.566-2.859 5.181-6.012 10.906-8.936 18.333h-13.6c-.981-7.683-.037-15.274 1.719-23.816.55-2.678-.02-5.464-1.577-7.711-1.558-2.246-3.967-3.758-6.667-4.182l-85.379-13.408c-3.673-.576-5.957-3.057-7.227-5.036-2.41-3.758-3.151-8.777-1.938-13.08.801-2.821 2.107-4.952 4.235-6.908.091-.083.18-.168.267-.255l59.136-58.542c4.691-4.652 10.943-7.21 17.618-7.21h.122c6.733.032 13.025 2.659 17.724 7.407 4.684 4.723 7.244 11.027 7.209 17.752-.035 6.729-2.662 13.018-7.403 17.71l-12.05 11.942-24.479-3.861c-5.457-.861-10.576 2.864-11.436 8.32-.86 5.455 2.865 10.575 8.32 11.436l56.789 9.064c4.398.714 12.553 5.548 15.791 12.421 2.378 5.049 1.793 10.477-1.787 16.596zm102.152 31.361h-32.719c-1.318-2.563-2.018-5.402-2.018-8.396 0-10.147 8.242-18.403 18.374-18.403 10.147 0 18.402 8.256 18.402 18.403 0 2.985-.707 5.824-2.039 8.396zm52.837-65.424c-3.97.302-7.383 2.93-8.688 6.691-5.948 17.126-1.88 40.923 6.405 58.732h-29.446c.615-2.74.932-5.555.932-8.396 0-21.176-17.228-38.403-38.402-38.403-21.159 0-38.374 17.228-38.374 38.403 0 2.844.315 5.659.927 8.396h-41.874c1.513-3.085 3.065-5.9 4.594-8.671 2.421-4.388 4.714-8.544 6.611-13.303 8.304-14.71 5.81-26.858 2.208-34.506-6.248-13.265-20.163-21.933-30.685-23.642l-7.947-1.284 1.679-1.664c8.534-8.446 13.268-19.745 13.33-31.816.062-12.075-4.558-23.418-13.001-31.932-8.452-8.54-19.759-13.274-31.838-13.33-.073-.001-.145-.001-.218-.001-11.985 0-23.235 4.615-31.692 13.003l-59.008 58.415c-4.788 4.448-7.992 9.694-9.798 16.053-2.763 9.808-1.137 20.769 4.349 29.322 4.924 7.678 12.369 12.648 20.96 13.996l75.358 11.835c-.725 5.581-1.021 11.41-.47 17.524h-134.601c-7.316-77.4 16.323-141.718 67.072-181.783 45.197-35.683 105.428-46.233 163.719-29.373-10.752 13.539-16.968 30.29-16.968 48.61 0 45.059 36.657 81.717 81.715 81.717 28.139 0 52.603-14.627 67.354-37.91 22.276 13.467 40.75 5.363 52.92-4.75 3.582-2.989 5.572-3.56 6.178-3.668 1.309 1.2 4.436 7.157 4.785 22.25.292 12.571-1.494 27.833-4.934 42.627-10.831 3.462-21.556 9.363-30.323 16.186-14.297-11.086-34.809-20.704-52.829-19.328zm30.37 65.424h-9.756c-7.539-10.816-13.361-30.667-11.891-45.125 9.777 1.524 20.974 6.936 29.83 13.34-7.665 10.594-9.441 22.009-8.183 31.785zm54.747 0h-34.487c-1.426-6-.801-13.702 4.645-20.768 8.214-10.641 26.59-22.068 41.664-24.372 1.319 13.877-3.769 33.824-11.822 45.14z"/><path d="m128.693 143.664c-3.772 4.034-3.56 10.362.474 14.135 1.929 1.803 4.381 2.695 6.828 2.695 2.672 0 5.337-1.064 7.306-3.17 17.392-18.601 17.392-48.864 0-67.463-10.331-11.049-10.328-29.047.006-40.121 3.768-4.037 3.549-10.365-.488-14.133-4.037-3.77-10.365-3.55-14.134.488-17.362 18.604-17.359 48.852.007 67.426 10.35 11.068 10.35 29.076.001 40.143z"/><path d="m203.888 115.722c-3.768 4.037-3.549 10.365.488 14.134 1.928 1.799 4.376 2.688 6.821 2.688 2.675 0 5.344-1.067 7.313-3.178 17.346-18.587 17.346-48.831 0-67.418-10.324-11.063-10.324-29.065 0-40.13 3.768-4.038 3.549-10.365-.489-14.134-4.036-3.768-10.365-3.549-14.133.489-17.346 18.588-17.346 48.832 0 67.419 10.324 11.064 10.324 29.066 0 40.13z"/><path d="m279.061 143.672c-3.768 4.038-3.549 10.366.489 14.134 1.928 1.799 4.377 2.688 6.82 2.688 2.675 0 5.345-1.067 7.313-3.178 17.352-18.596 17.352-48.853-.007-67.455-10.331-11.049-10.328-29.047.007-40.121 3.768-4.037 3.549-10.365-.489-14.133-4.038-3.771-10.364-3.552-14.134.488-17.362 18.604-17.359 48.852 0 67.418 10.333 11.072 10.333 29.087.001 40.159z"/><path d="m255.986 487.004c-5.523 0-10 4.478-10 10s4.477 10 10 10h.057c5.523 0 9.971-4.478 9.971-10s-4.505-10-10.028-10z"/></g></g></svg>