<svg height="512" viewBox="0 0 52 58" width="512" xmlns="http://www.w3.org/2000/svg"><g id="Page-1" fill="none" fill-rule="evenodd"><g id="002---Whey-Protein"><path id="Path" d="m52 39.44v10.56c0 4.418278-3.581722 8-8 8h-36c-4.418278 0-8-3.581722-8-8v-10.56c.00024362-2.2825269.29945522-4.5551902.89-6.76l6.11-19.68 19.111-1.5 18.889 1.5 6.11 19.68c.5905448 2.2048098.8897564 4.4774731.89 6.76z" fill="#4482c3"/><path id="Shape" d="m43.5 0h-35c-.87693871-.00160106-1.71067312.38058076-2.28185321 1.04599595s-.82261241 1.54743434-.68814679 2.41400405l1.47 9.54h38l1.47-9.54c.1344656-.86656971-.1169667-1.74858886-.6881468-2.41400405s-1.4049145-1.04759701-2.2818532-1.04599595zm-10.23 8.27c-.4697537.46856974-1.1065057.73118498-1.77.73h-11c-1.3807119 0-2.5-1.11928813-2.5-2.5s1.1192881-2.5 2.5-2.5h11c1.0125444-.00181162 1.9261924.60731437 2.3139215 1.54268357.3877292.93536921.1729627 2.01224546-.5439215 2.72731643z" fill="#285680" fill-rule="nonzero"/><path id="Path" d="m44 55c-.5522847 0-1-.4477153-1-1s.4477153-1 1-1c1.6568542 0 3-1.3431458 3-3 0-.5522847.4477153-1 1-1s1 .4477153 1 1c-.0033061 2.7600532-2.2399468 4.9966939-5 5z" fill="#fff"/><path id="Path" d="m8 55c-2.76005315-.0033061-4.99669388-2.2399468-5-5 0-.5522847.44771525-1 1-1s1 .4477153 1 1c0 1.6568542 1.34314575 3 3 3 .55228475 0 1 .4477153 1 1s-.44771525 1-1 1z" fill="#fff"/><path id="Path" d="m40 42.64c-.007357 4.0877202-3.0059323 7.5541584-7.05 8.15-4.9573816.6191166-9.9814294-.3955233-14.31-2.89l-.02.01c-.9221185.3021486-1.9331228.1451555-2.7201896-.4224026-.7870667-.5675582-1.2552965-1.477249-1.2598104-2.4475974v-1.13c-.6799104-1.0621516-1.0917103-2.2735297-1.2-3.53-.1429831-1.6715796.1570938-3.3513205.87-4.87 1.99-4.36 5.34-12.97 6.15-15.06.1153713-.2913065.3590487-.5128315.66-.6l5.94-1.69c.3558259-.1004049.7381402-.0010032 1 .26l2.87 2.86c.3877236.3900375.3877236 1.0199625 0 1.41l-2.09 2.09-.01.02c.2074634.1033251.4212185.193503.64.27.7029846.2601804 1.1697535.9304127 1.17 1.68-.0013521.1901569-.0317011.3789952-.09.56-.3068486.9255956-1.3000286 1.43332-2.23 1.14-1.0443369-.356525-2.1368359-.5520958-3.24-.58-.1001055.0018334-.2002388-.0015044-.3-.01-.542424-.0287711-1.0551641-.2566556-1.44-.64-.1269179.7743341-.1336638 1.5636097-.02 2.34.0560542.4898633.163307.9725009.32 1.44.6813776 1.9023272.9705201 3.9229231.85 5.94l.01-.01c.5428441-.6942248 1.2371949-1.2551781 2.03-1.64 3.0785825-1.5340754 6.7286322-1.3830909 9.67.4 2.1224462 1.3147289 3.5094081 3.5449637 3.75 6.03.03.31.05.61.05.92z" fill="#fdd7ad"/><path id="Path" d="m28.956 46.883c-1.6894111.1041197-3.374826-.2595369-4.871-1.051-.4614339-.3037566-.5892565-.9240661-.2854999-1.3855s.924066-.5892566 1.3854999-.2855c.072.044 2.87 1.683 9.181-.122.3471024-.1103983.7267789-.0233391.9911055.2272589.2643265.250598.371493.6250961.2797468.977588s-.3678931.6272216-.7208523.7171531c-1.9342229.5825617-3.9401614.8928763-5.96.922z" fill="#f9c795"/><path id="Path" d="m17.641 42c-.379026.0001766-.7255754-.2139484-.895-.553-.7169108-1.5525694-.7169108-3.3414306 0-4.894.2525014-.4813709.8432802-.6728847 1.3301742-.4312048.486894.24168.6915635.828031.4608258 1.3202048-.4363905.9910895-.4363905 2.1199105 0 3.111.1550183.3102209.138242.6786097-.0443309.9734568s-.5048732.4740518-.8516691.4735432z" fill="#f9c795"/><g fill="#f3d55b"><path id="Path" d="m9 39h-3c-.55228475 0-1-.4477153-1-1s.44771525-1 1-1h3c.55228475 0 1 .4477153 1 1s-.44771525 1-1 1z"/><path id="Path" d="m46 39h-3c-.5522847 0-1-.4477153-1-1s.4477153-1 1-1h3c.5522847 0 1 .4477153 1 1s-.4477153 1-1 1z"/><path id="Path" d="m40.724 32.5c-.4525881-.0000199-.8487411-.3040116-.9658809-.7411777-.1171399-.4371661.0739396-.8985084.4658809-1.1248223l2.6-1.5c.3095704-.1814844.6926495-.1831833 1.0038174-.0044519.311168.1787315.5027136.5104885.5019247.8693336s-.1937913.6897567-.5057421.8671183l-2.6 1.5c-.1520167.0877772-.324461.1339923-.5.134z"/><path id="Path" d="m11.276 32.5c-.175539-.0000077-.3479833-.0462228-.5-.134l-2.6-1.5c-.31195078-.1773616-.50495322-.5082732-.5057421-.8671183-.00078889-.3588451.19075673-.6906021.50192468-.8693336.31116795-.1787314.694247-.1770325 1.00381742.0044519l2.6 1.5c.3919413.2263139.5830208.6876562.4658809 1.1248223-.1171398.4371661-.5132928.7411578-.9658809.7411777z"/></g><path id="Path" d="m25.49 40.46c-.1862704.2755788-.4973739.4405011-.83.44-.1999336.0038802-.3959641-.055629-.56-.17-.2203997-.1483028-.3727332-.3782067-.4233875-.6389823-.0506542-.2607756.0045341-.5309895.1533875-.7510177.3857628-.7449063.610625-1.562587.66-2.4l.01-.01c.5428441-.6942248 1.2371949-1.2551781 2.03-1.64.1818193 1.7887395-.180664 3.5906999-1.04 5.17z" fill="#cbb292"/><path id="Path" d="m28.83 24.8.01-.02 1.49-1.49c-.9808064-.3926471-1.8670277-.9891422-2.6-1.75-.3921222-.3921222-1.0278778-.3921222-1.42 0s-.3921222 1.0278778 0 1.42c.973834 1.0024627 2.159395 1.7746148 3.47 2.26-.098218-.0599465-.2020416-.1101837-.31-.15-.2187815-.076497-.4325366-.1666749-.64-.27z" fill="#cbb292"/><path id="Path" d="m23.32 29.56c-.6153139-.1976092-1.1559269-.5777823-1.55-1.09-.6090915-.877241-.80282-1.9774723-.53-3.01.0686868-.2569418.2374789-.4756402.4686315-.6071904.2311525-.1315502.5053829-.1649785.7613685-.0928096.5292419.1511077.8403736.6978104.7 1.23-.0336433.1442366-.0504224.2918923-.05.44-.006075.2792538.0704595.5540821.22.79-.1269179.7743341-.1336638 1.5636097-.02 2.34z" fill="#cbb292"/></g></g></svg>